<svg version="1.1" id="Layer_1" xmlns="http://www.w3.org/2000/svg" xmlns:xlink="http://www.w3.org/1999/xlink" x="0px" y="0px"
	 width="100%" viewBox="0 0 224 224" enable-background="new 0 0 224 224" xml:space="preserve">
<path fill="#FEFEFE" opacity="1.000000" stroke="none" 
	d="
M123.000000,225.000000 
	C83.333336,225.000000 44.166451,224.943634 5.000397,225.098557 
	C1.574255,225.112106 0.897767,224.424347 0.903691,220.999832 
	C1.030552,147.666718 1.000000,74.333344 1.000000,1.000010 
	C74.333321,1.000000 147.666687,1.030553 220.999802,0.903696 
	C224.424240,0.897772 225.102432,1.575534 225.096375,5.000136 
	C224.968887,76.999908 224.968903,149.000015 225.096375,220.999786 
	C225.102432,224.424225 224.426620,225.117035 220.999542,225.099426 
	C188.500381,224.932556 156.000015,225.000000 123.000000,225.000000 
z"/>
<path fill="#E43E7C" opacity="1.000000" stroke="none" 
	d="
M100.887711,102.689056 
	C101.200966,95.656143 104.546692,92.294113 111.015640,91.851021 
	C115.624580,91.535355 119.931396,92.675293 124.154457,94.274780 
	C125.746307,94.877686 127.221992,95.655594 128.752090,94.187660 
	C136.022095,87.213005 142.656250,79.810501 145.123657,69.643120 
	C147.272507,60.788429 145.326965,57.654510 136.612381,55.969181 
	C135.097610,55.676239 134.116379,54.993149 134.060043,53.438389 
	C133.993179,51.593636 135.317154,50.879036 136.839890,50.409782 
	C141.516479,48.968624 147.485641,52.022598 149.947632,57.258656 
	C152.190506,62.028690 151.873428,66.968056 150.501587,71.890747 
	C148.251709,79.964218 143.444412,86.500229 137.892761,92.567345 
	C136.443436,94.151237 134.928360,95.674957 133.004364,97.685074 
	C139.324860,99.908241 145.249771,101.847504 151.053513,104.099152 
	C153.670883,105.114609 154.234863,103.988693 154.480820,101.841339 
	C155.951080,89.003960 161.548080,76.842438 160.734680,63.626591 
	C160.643356,62.142876 161.219208,61.011284 162.870605,60.778389 
	C164.383789,60.564983 165.474197,61.173298 166.060425,62.579956 
	C167.129456,65.145042 167.001114,67.790054 166.471451,70.439781 
	C164.418854,80.708420 162.460129,90.997681 160.237640,101.229561 
	C159.365234,105.245995 160.173508,107.049561 164.673447,107.061844 
	C169.205261,107.074211 173.275635,106.517113 176.490280,102.999039 
	C177.725494,101.647217 179.255157,100.883522 180.836426,102.302849 
	C182.706268,103.981194 181.600037,105.706497 180.371185,107.107689 
	C176.101074,111.976639 170.402115,113.054337 164.433395,112.148857 
	C159.685181,111.428528 157.382401,112.466438 157.312225,117.673111 
	C157.254089,121.987869 156.431808,126.345009 157.438965,130.585754 
	C157.978271,132.856583 157.588486,134.362427 155.461884,134.816833 
	C153.213913,135.297195 152.317688,133.532013 151.766388,131.632629 
	C150.075378,125.806396 151.280182,119.986633 152.300903,114.314644 
	C152.944427,110.738670 151.828247,109.854950 148.769730,108.945251 
	C143.205353,107.290237 137.752274,105.217735 132.354156,103.065140 
	C129.631073,101.979256 127.565796,101.923309 125.138969,103.983566 
	C121.423157,107.138123 116.970444,109.112282 112.078682,109.788773 
	C106.407982,110.572975 103.019913,108.484955 100.887711,102.689056 
z"/>
<path fill="#131313" opacity="1.000000" stroke="none" 
	d="
M69.591103,154.028015 
	C70.815605,167.060150 80.285934,174.822693 90.958946,172.065674 
	C93.664909,171.366714 95.846306,169.977478 97.370682,167.685745 
	C98.491051,166.001389 99.600853,163.839691 98.543182,162.092209 
	C97.401054,160.205200 95.606758,162.260056 94.135071,162.532150 
	C90.133438,163.271988 86.489670,162.988983 83.710686,159.664200 
	C82.355339,158.042664 82.532120,156.109879 83.887329,154.641296 
	C86.976082,151.294128 91.094940,151.738922 94.538902,153.244385 
	C98.052063,154.780075 100.895462,157.241074 105.285370,156.902542 
	C108.310356,156.669250 109.469658,159.857971 109.664963,162.634552 
	C109.783005,164.312698 110.140724,167.060699 107.827019,167.076263 
	C105.672974,167.090744 107.095009,164.664886 107.014839,163.375549 
	C106.857292,160.841736 105.961319,159.151016 103.220406,159.152496 
	C99.779861,159.154343 101.557861,161.712097 101.491920,163.160141 
	C101.117828,171.374802 92.925629,176.767700 83.564186,174.856918 
	C72.475029,172.593506 65.919350,163.544769 66.872101,151.817062 
	C67.684067,141.822311 76.019218,134.382675 86.859535,133.934875 
	C88.536346,133.865616 90.467041,134.757019 91.568954,132.320496 
	C91.825294,131.753677 94.642426,130.580200 93.604439,133.853516 
	C93.059776,135.571106 95.144554,135.585861 96.123955,136.243805 
	C99.101540,138.244080 101.647324,140.559875 102.249199,144.325485 
	C102.579643,146.392899 102.424057,148.398849 100.349380,149.568893 
	C98.369324,150.685562 96.439644,150.152740 94.765923,148.870148 
	C91.836441,146.625275 90.048752,143.516418 90.047997,139.906967 
	C90.047302,136.601883 88.403183,136.546555 85.982285,136.702164 
	C76.754669,137.295334 70.966011,143.226120 69.591103,154.028015 
z"/>
<path fill="#161616" opacity="1.000000" stroke="none" 
	d="
M106.985077,76.617157 
	C104.593475,82.969505 98.850304,86.323555 95.668831,91.662155 
	C95.271164,92.329445 93.969650,93.799767 92.805801,92.457260 
	C91.468918,90.915161 93.486382,90.702202 94.125580,89.973404 
	C95.078896,88.886452 96.081665,87.842880 97.796951,85.987297 
	C92.996223,85.853424 89.100311,86.534470 85.351143,85.254532 
	C80.094917,83.460106 77.270340,80.128662 77.945312,76.055603 
	C78.599510,72.107910 82.594780,69.558914 87.931664,69.684258 
	C94.507179,69.838699 98.082596,72.986847 100.867302,81.074043 
	C105.777443,77.410049 105.909363,72.444305 101.110497,68.975327 
	C97.967606,66.703400 94.167595,65.860153 90.635292,64.441589 
	C86.696327,62.859703 83.311623,60.721188 83.952538,55.794010 
	C84.595398,50.851868 88.335609,48.560390 92.688225,48.414642 
	C96.792107,48.277229 100.857193,47.193302 105.479218,47.608616 
	C102.458832,48.945671 101.396019,50.097664 103.847816,52.733707 
	C105.130844,54.113159 105.006577,56.559948 103.482834,58.288223 
	C102.371071,59.549221 100.881027,59.658257 99.345467,59.191574 
	C97.083092,58.504005 96.643272,56.590855 96.090912,54.608555 
	C95.690491,53.171547 98.530220,50.597122 95.081146,50.379383 
	C91.692459,50.165451 88.491776,51.191116 86.801888,54.733704 
	C85.657402,57.132942 86.501976,58.954899 88.368896,60.403351 
	C91.042221,62.477448 94.355423,63.215832 97.425262,64.451035 
	C102.802017,66.614449 107.305603,69.457344 106.985077,76.617157 
z"/>
<path fill="#141414" opacity="1.000000" stroke="none" 
	d="
M44.250656,73.663811 
	C42.914291,60.137993 46.499687,53.896461 58.319786,49.354813 
	C59.951267,48.727943 61.395443,45.624233 62.815487,47.315105 
	C65.587708,50.616032 70.833038,49.901985 72.767624,54.226414 
	C74.302521,57.657421 75.227074,61.005123 71.887520,63.733810 
	C68.707832,66.331879 65.633789,64.987114 62.892601,62.654411 
	C60.322941,60.467682 59.283199,57.423283 59.076447,54.251640 
	C58.910431,51.704960 58.053684,51.508064 56.058228,52.440987 
	C49.669067,55.428089 46.782112,60.783787 46.170460,67.467857 
	C45.572277,74.004753 48.508755,79.876305 53.660145,82.031441 
	C59.627239,84.527832 65.345444,84.021660 70.208626,79.221527 
	C70.873688,78.565086 71.591011,77.302620 72.594292,78.171982 
	C73.891785,79.296265 72.575661,80.272598 71.826027,81.043320 
	C67.638641,85.348473 62.447227,86.431953 56.714397,85.521828 
	C50.047352,84.463387 46.226944,80.288368 44.250656,73.663811 
z"/>
<path fill="#111111" opacity="1.000000" stroke="none" 
	d="
M148.570999,170.028503 
	C148.753143,167.895065 149.417297,166.390686 151.292175,165.924225 
	C152.529449,165.616425 154.277832,165.118561 154.812302,166.614899 
	C155.499634,168.539261 153.486786,167.787170 152.620483,168.229904 
	C150.320114,169.405533 151.044037,170.937546 152.559967,172.053131 
	C154.659805,173.598404 157.035263,173.567886 158.916855,171.722504 
	C160.952942,169.725601 160.549072,167.387650 158.644958,165.548508 
	C157.107880,164.063873 155.012054,163.146942 153.521240,161.627686 
	C151.155746,159.217056 151.277908,156.516357 153.706177,154.144669 
	C155.873764,152.027603 160.516144,152.300858 162.280930,154.463028 
	C162.968491,155.305389 163.483215,156.210999 162.735321,157.129379 
	C161.708603,158.390198 161.042801,157.261368 160.445465,156.530716 
	C158.864960,154.597473 156.886703,154.255127 155.394928,156.173508 
	C153.819290,158.199722 155.160843,159.871078 157.082016,161.052521 
	C157.930954,161.574570 158.759308,162.134354 159.566681,162.718918 
	C162.202805,164.627487 163.833755,167.085678 162.783600,170.415039 
	C161.783447,173.585815 159.456970,175.206863 156.027573,175.241608 
	C152.416107,175.278183 149.331268,174.654526 148.570999,170.028503 
z"/>
<path fill="#171717" opacity="1.000000" stroke="none" 
	d="
M140.964478,159.921219 
	C142.304352,152.021652 145.475952,144.894531 145.066299,137.119339 
	C145.013687,136.120712 144.776688,134.975159 146.195206,134.892380 
	C147.371262,134.823746 147.888580,135.730560 148.013733,136.818420 
	C148.380661,140.007324 147.703903,143.101639 147.040680,146.175369 
	C145.160400,154.889511 142.292969,163.446625 143.005081,172.557953 
	C143.071655,173.409714 142.972031,174.435272 141.960876,174.498901 
	C140.534149,174.588684 140.121445,173.459885 140.011185,172.229431 
	C139.651932,168.219498 140.367798,164.293427 140.964478,159.921219 
z"/>
<path fill="#161616" opacity="1.000000" stroke="none" 
	d="
M125.819099,160.247162 
	C125.770782,159.306442 125.644646,158.806396 125.684494,158.319931 
	C125.815720,156.718002 122.475906,155.093430 125.107315,153.826263 
	C127.294907,152.772858 127.165039,156.164429 128.660263,157.085220 
	C130.677612,154.907883 132.584778,152.465271 136.005646,152.758224 
	C136.577927,152.807236 137.356567,153.181259 137.603546,153.639999 
	C137.956329,154.295258 137.420349,154.893127 136.691223,155.036819 
	C129.855576,156.383850 129.112289,162.056015 127.907295,167.391571 
	C127.579781,168.841751 127.285423,170.303284 127.067467,171.773193 
	C126.872337,173.089111 126.784615,174.935715 125.243721,174.781845 
	C123.414124,174.599136 124.133430,172.721527 124.289200,171.501343 
	C124.749908,167.892700 125.301346,164.295654 125.819099,160.247162 
z"/>
<path fill="#191919" opacity="1.000000" stroke="none" 
	d="
M116.803696,171.651154 
	C116.369186,173.208405 116.895409,175.147568 114.940819,175.011856 
	C113.259102,174.895065 113.767242,173.202408 113.893066,172.206818 
	C114.598282,166.626831 115.384712,161.055313 116.277817,155.502533 
	C116.436630,154.515167 116.709892,152.878555 118.362267,153.416382 
	C119.491371,153.783890 119.244164,155.099136 119.051994,156.016342 
	C117.998383,161.045120 117.151695,166.099014 116.803696,171.651154 
z"/>
<path fill="#111111" opacity="1.000000" stroke="none" 
	d="
M117.239288,144.312241 
	C118.955261,144.947083 120.410431,145.906616 120.942329,147.825195 
	C119.172447,148.433609 117.143219,149.375992 115.682495,147.907242 
	C114.419601,146.637405 118.082100,146.380066 117.239288,144.312241 
z"/>
<path fill="#FDF5F8" opacity="1.000000" stroke="none" 
	d="
M107.690903,98.812630 
	C112.655334,95.385742 117.122444,97.270119 122.237053,98.904251 
	C119.312553,102.603676 115.706413,103.999260 111.871880,104.664276 
	C107.858658,105.360268 106.492989,103.492706 107.690903,98.812630 
z"/>
<path fill="#F5F5F5" opacity="1.000000" stroke="none" 
	d="
M87.673645,159.588058 
	C84.473839,157.093430 85.692528,155.612198 88.464783,155.138489 
	C91.656693,154.593048 94.685272,155.280518 97.059753,158.280396 
	C94.172096,160.454636 91.171364,160.441391 87.673645,159.588058 
z"/>
<path fill="#E8E8E8" opacity="1.000000" stroke="none" 
	d="
M95.960831,146.455627 
	C93.517288,143.927841 92.418831,141.314117 92.770782,137.790253 
	C96.213219,138.878967 98.326431,141.034622 99.370438,144.119003 
	C100.443237,147.288483 99.347221,148.330582 95.960831,146.455627 
z"/>
<path fill="#F5F5F5" opacity="1.000000" stroke="none" 
	d="
M90.351723,72.168503 
	C95.231575,73.861923 98.827652,77.102318 97.694046,81.739326 
	C96.772438,85.509148 92.031097,83.907898 89.004799,83.752983 
	C83.776901,83.485374 79.432411,79.851685 80.300491,76.733025 
	C81.674248,71.797676 85.775871,71.666260 90.351723,72.168503 
z"/>
<path fill="#EFEFEF" opacity="1.000000" stroke="none" 
	d="
M99.382217,56.447136 
	C98.575981,54.654026 98.559135,53.251907 99.423294,51.818272 
	C101.721794,52.374657 102.251167,54.015808 101.960526,55.941399 
	C101.762726,57.251877 100.677330,57.191914 99.382217,56.447136 
z"/>
<path fill="#EFEFEF" opacity="1.000000" stroke="none" 
	d="
M65.977707,61.969967 
	C64.763252,60.854694 63.677528,60.001621 63.069435,58.887787 
	C61.809387,56.579773 60.288303,53.540016 62.342674,51.650326 
	C63.913536,50.205387 66.702705,52.063999 68.488968,53.421471 
	C70.797585,55.175896 72.473145,57.533573 71.195473,60.635715 
	C70.274963,62.870712 68.445778,63.257450 65.977707,61.969967 
z"/>
</svg>