<svg version="1.1" id="Layer_1" xmlns="http://www.w3.org/2000/svg" xmlns:xlink="http://www.w3.org/1999/xlink" x="0px" y="0px"
	 width="100%" viewBox="0 0 512 512" enable-background="new 0 0 512 512" xml:space="preserve">
<path fill="#070600" opacity="1.000000" stroke="none" 
	d="
M376.000000,513.000000 
	C252.030136,513.000000 128.560242,512.985291 5.090451,513.081238 
	C1.864246,513.083740 0.892251,512.701721 0.894846,509.092285 
	C1.015713,340.966705 1.011163,172.841064 0.916070,4.715466 
	C0.914257,1.509262 1.742251,0.926948 4.782786,0.928406 
	C172.908386,1.009044 341.034027,1.007294 509.159637,0.939565 
	C512.062378,0.938395 513.095642,1.309075 513.093567,4.657903 
	C512.987061,172.950089 512.988770,341.242371 513.088318,509.534576 
	C513.090149,512.611023 512.354370,513.082581 509.466888,513.075500 
	C465.144806,512.967163 420.822357,513.000000 376.000000,513.000000 
z"/>
<path fill="#8B51FD" opacity="1.000000" stroke="none" 
	d="
M319.932129,275.971924 
	C305.630341,275.986542 291.817657,275.901978 278.008179,276.073730 
	C274.824249,276.113312 273.784760,275.337402 273.816528,271.989349 
	C273.985413,254.185654 273.891632,236.379501 273.902161,218.574188 
	C273.903290,216.659393 273.305115,214.502594 276.631958,214.588120 
	C295.908447,215.083740 315.235046,213.522736 334.462067,216.028961 
	C335.447540,216.157425 336.421387,216.381851 337.396454,216.582047 
	C359.221619,221.063431 365.214478,233.682327 360.415405,256.977295 
	C358.970886,263.988922 353.595520,268.215057 347.215576,270.969757 
	C338.677307,274.656403 329.608368,275.664795 319.932129,275.971924 
z"/>
<path fill="#8A51FB" opacity="1.000000" stroke="none" 
	d="
M197.665421,220.608765 
	C204.366852,215.667252 211.783249,214.140259 219.524887,213.622101 
	C229.390747,212.961746 239.152512,213.186981 248.507278,216.940552 
	C255.013855,219.551270 259.611145,224.035553 262.199921,230.628708 
	C263.141876,233.027679 263.289307,234.267868 260.061401,234.201508 
	C252.905029,234.054367 245.743073,234.112198 238.584427,234.186157 
	C236.787369,234.204712 235.538071,233.491837 234.135483,232.440964 
	C229.541702,228.999115 224.563110,229.105576 219.579132,231.589569 
	C218.275833,232.239120 216.687286,233.138870 216.987335,234.877472 
	C217.278992,236.567398 219.128220,236.256027 220.315811,236.394821 
	C228.241989,237.321213 236.194366,238.025955 244.116928,238.979828 
	C248.255127,239.478058 252.258881,240.662628 255.957916,242.648758 
	C262.879608,246.365219 265.036285,252.018158 262.447083,259.421600 
	C259.709808,267.248383 254.128372,272.284729 246.391510,274.592712 
	C233.172928,278.535858 219.755188,278.478485 206.521957,274.715637 
	C198.983185,272.571991 193.376114,267.746582 190.392853,260.235474 
	C189.398331,257.731506 189.317291,256.248932 192.837433,256.350983 
	C199.824463,256.553558 206.822723,256.483704 213.813675,256.366730 
	C215.862671,256.332428 217.147186,257.336456 218.642548,258.458862 
	C222.896469,261.651825 229.666626,261.713531 233.645996,258.737885 
	C234.676971,257.966980 236.150024,257.177612 235.782562,255.661514 
	C235.417191,254.154022 233.806229,254.102463 232.503571,253.976059 
	C225.384766,253.285217 218.260818,252.647263 211.142380,251.952728 
	C207.325607,251.580322 203.556381,250.888016 199.951141,249.563599 
	C189.387650,245.682983 186.400314,237.673645 191.734070,227.732819 
	C193.168167,225.060074 194.993652,222.718109 197.665421,220.608765 
z"/>
<path fill="#8B51FD" opacity="1.000000" stroke="none" 
	d="
M134.843323,275.996521 
	C128.028442,276.002777 121.698540,275.910278 115.373726,276.049072 
	C112.811058,276.105347 111.482040,275.753937 111.505814,272.632996 
	C111.644028,254.483093 111.631538,236.331238 111.513794,218.181046 
	C111.494904,215.269547 112.487289,214.554321 115.250473,214.567001 
	C136.398376,214.663956 157.547058,214.655228 178.695114,214.575912 
	C181.229233,214.566406 182.064819,215.243500 182.155380,217.916626 
	C182.561493,229.905441 182.659012,229.902130 170.887238,229.902161 
	C161.062408,229.902176 151.232193,230.090561 141.415466,229.808563 
	C137.554932,229.697647 137.094269,231.324402 137.199951,234.505020 
	C137.296692,237.416168 137.136688,239.549271 141.265900,239.422989 
	C150.915176,239.127899 160.584976,239.515747 170.235321,239.238556 
	C174.155289,239.125977 175.394409,240.215607 175.223480,244.200195 
	C174.925156,251.154099 175.172729,251.165161 168.430283,251.165665 
	C159.271545,251.166351 150.111343,251.258377 140.954971,251.111496 
	C138.131973,251.066223 137.142624,251.957672 137.225876,254.802048 
	C137.396362,260.625336 137.331314,266.458038 137.235779,272.284760 
	C137.212357,273.712921 138.148407,275.894562 134.843323,275.996521 
z"/>
<path fill="#FCFCFC" opacity="1.000000" stroke="none" 
	d="
M377.230408,266.143066 
	C387.461304,244.121750 397.619232,222.480530 407.538971,200.730667 
	C409.011078,197.502945 410.750549,196.374313 414.228485,196.540451 
	C420.335815,196.832184 426.467133,196.621918 432.627075,196.621918 
	C433.027588,198.582474 431.906616,199.730011 431.317719,201.001389 
	C418.198700,229.324310 404.978424,257.600769 392.006287,285.990662 
	C390.491608,289.305511 388.692932,290.272278 385.284119,290.130951 
	C379.194275,289.878479 373.086456,290.059906 366.223541,290.059906 
	C370.040619,281.772339 373.560455,274.130157 377.230408,266.143066 
z"/>
<path fill="#FBFBFA" opacity="1.000000" stroke="none" 
	d="
M66.747414,254.376923 
	C74.205780,257.313080 81.279266,260.181885 88.450462,262.781097 
	C90.833641,263.644867 91.929268,264.742950 91.741760,267.390167 
	C91.507233,270.701324 91.490402,274.056549 91.740761,277.365417 
	C91.995781,280.736053 91.109482,281.304718 87.925728,280.072144 
	C75.089409,275.102600 62.162235,270.367798 49.270855,265.540314 
	C41.194481,262.515930 33.151608,259.398010 25.028509,256.505127 
	C22.814899,255.716797 22.014183,254.703140 21.959724,252.272003 
	C21.709724,241.111755 21.613062,241.106201 31.822191,237.293457 
	C51.528065,229.933990 71.237518,222.584137 91.682182,214.955399 
	C91.682182,220.385147 91.578804,225.285828 91.723671,230.179169 
	C91.801819,232.818909 89.773567,233.005630 88.191200,233.622192 
	C77.526917,237.777405 66.825821,241.838074 56.158096,245.984558 
	C54.679806,246.559174 52.898975,246.661270 51.647308,248.526688 
	C56.667877,250.458832 61.534260,252.331619 66.747414,254.376923 
z"/>
<path fill="#FBFBFA" opacity="1.000000" stroke="none" 
	d="
M493.540771,234.593262 
	C498.397247,236.448013 502.850555,238.306366 507.437012,239.738281 
	C510.142731,240.583023 510.900604,241.941101 510.892792,244.725937 
	C510.863037,255.311157 510.972931,255.298325 501.261169,258.914642 
	C482.914032,265.746429 464.574066,272.597565 446.227905,279.431976 
	C444.695618,280.002808 443.138794,280.507721 441.034912,281.236816 
	C441.034912,275.892456 441.133942,270.969238 440.995361,266.052673 
	C440.920105,263.383484 442.961731,263.349518 444.557709,262.726318 
	C456.690613,257.988525 468.833679,253.276855 482.042175,248.141632 
	C475.424835,245.548553 469.782104,243.314041 464.121643,241.125336 
	C457.467926,238.552567 450.808929,235.992767 444.129730,233.487274 
	C442.353485,232.820984 440.860870,232.320648 440.972107,229.817581 
	C441.184570,225.037689 441.033844,220.241653 441.033844,214.980377 
	C458.722443,221.572006 475.958008,227.994797 493.540771,234.593262 
z"/>
<path fill="#070600" opacity="1.000000" stroke="none" 
	d="
M324.200989,259.537231 
	C316.934448,261.210632 309.941895,260.793793 302.973053,260.904907 
	C300.735168,260.940582 299.642273,260.385773 299.674316,257.883057 
	C299.780579,249.577515 299.741669,241.269577 299.692139,232.962952 
	C299.680817,231.060928 299.942200,229.770935 302.336884,229.882599 
	C309.287018,230.206696 316.288727,229.258102 323.189209,230.853622 
	C331.319031,232.733414 334.797821,236.475174 335.141510,243.853027 
	C335.568176,253.012589 333.160400,256.556641 324.200989,259.537231 
z"/>
</svg>