<svg version="1.1" id="Layer_1" xmlns="http://www.w3.org/2000/svg" xmlns:xlink="http://www.w3.org/1999/xlink" x="0px" y="0px"
	 width="100%" viewBox="0 0 2061 700" enable-background="new 0 0 2061 700" xml:space="preserve">
<path fill="#000000" opacity="1.000000" stroke="none" 
	d="
M2061.713379,623.775879 
	C2062.000000,648.660950 2061.960205,673.322021 2062.061768,697.982544 
	C2062.072021,700.438904 2061.565918,701.498535 2059.015137,701.018127 
	C2058.371582,700.896912 2057.685547,701.000000 2057.019043,701.000000 
	C1458.325195,701.000000 859.631226,701.000000 260.468658,701.000000 
	C258.755432,697.026489 261.748444,697.064026 264.146332,696.758484 
	C277.195282,695.095581 290.192474,693.208923 302.928131,689.767090 
	C322.526520,684.470642 341.256836,677.283630 357.528168,664.788574 
	C379.127228,648.202332 392.233429,626.564575 395.787262,599.409973 
	C399.074371,574.292786 393.499573,551.393616 377.888397,531.294067 
	C367.961884,518.513489 354.919830,509.768738 340.114746,503.423981 
	C319.673309,494.663727 298.066833,491.049225 276.218353,488.213715 
	C271.424774,487.591614 266.139984,488.711853 261.703918,484.894470 
	C260.874786,481.670837 262.838135,480.251007 264.831421,479.074738 
	C279.485718,470.427002 294.253357,461.976318 309.221924,453.881195 
	C310.103455,453.404480 311.034149,453.075897 312.463104,453.181702 
	C334.056824,452.017395 355.271332,452.962616 376.469543,452.520111 
	C380.617462,452.433533 381.697205,450.907410 381.064850,446.743225 
	C379.867920,438.861298 377.195618,431.318817 375.606628,423.105621 
	C375.727417,420.207550 377.257080,418.879761 379.349365,417.909882 
	C391.500977,412.277039 403.488861,406.292725 415.778290,400.955536 
	C418.230988,399.890320 420.678101,398.635712 423.367493,401.369995 
	C424.569427,404.486206 424.339203,407.341675 424.384430,410.161407 
	C424.538635,419.779236 425.313812,420.581238 435.124115,420.588776 
	C464.285553,420.611206 493.447021,420.593079 522.608459,420.600098 
	C526.107422,420.600922 529.610291,420.505127 533.104004,420.731689 
	C538.778809,421.099731 539.940491,422.299866 540.284668,428.091339 
	C540.472595,431.253235 540.400146,434.421783 540.400269,437.587585 
	C540.404419,516.573425 540.399231,595.559326 540.406006,674.545166 
	C540.407043,686.262512 540.740906,686.589966 552.473206,686.594727 
	C571.136536,686.602295 589.799866,686.607666 608.463196,686.592224 
	C618.916321,686.583618 619.588684,685.932068 619.590454,675.602112 
	C619.604065,596.282959 619.594666,516.963867 619.599548,437.644714 
	C619.599731,434.478851 619.525269,431.310059 619.710876,428.148346 
	C620.061462,422.177155 621.227295,421.046661 627.335876,420.703125 
	C629.998657,420.553406 632.666809,420.600037 635.332886,420.599579 
	C663.994446,420.594849 692.655945,420.598602 721.317505,420.596375 
	C723.317139,420.596222 725.318848,420.646881 727.315796,420.549408 
	C732.817383,420.280945 734.451965,418.768707 734.529968,413.215698 
	C734.710022,400.386169 734.581482,387.554199 734.593018,374.723267 
	C734.596313,371.057648 734.638733,367.391754 734.526550,363.726227 
	C734.402710,359.680511 732.326721,357.625946 728.296021,357.478485 
	C725.963501,357.393158 723.630981,357.404877 721.298340,357.404694 
	C665.641602,357.400879 609.984924,357.411926 554.328186,357.385315 
	C550.674744,357.383575 546.986389,357.702057 542.995300,356.463989 
	C540.113403,352.164581 543.430908,351.209900 546.027771,350.415924 
	C554.467102,347.835693 562.766724,344.835541 571.192627,342.224579 
	C602.838257,332.418427 634.768982,323.631378 667.001038,315.982941 
	C709.928345,305.796509 753.250000,297.694366 796.936646,291.454193 
	C820.981689,288.019623 845.105469,285.358978 869.253113,282.876282 
	C882.145996,281.550781 895.108887,280.949615 908.011414,279.682526 
	C911.997925,279.291016 915.923889,280.407135 920.283203,279.778381 
	C924.134460,279.017365 926.742371,281.159973 929.455505,282.598206 
	C944.313416,290.474518 960.038696,295.627625 976.652771,298.123383 
	C1001.163940,301.805481 1025.076416,299.135040 1048.512695,291.371002 
	C1051.945679,290.233704 1054.554688,288.749298 1053.184937,284.282135 
	C1052.640137,282.505310 1053.579956,280.694763 1055.327148,279.098450 
	C1060.837524,276.855560 1066.271484,277.257111 1071.484985,277.930817 
	C1079.936401,279.022980 1088.433105,278.894897 1096.888672,279.420807 
	C1126.458984,281.260010 1155.929321,283.941498 1185.357056,287.368317 
	C1254.798096,295.454651 1323.248047,308.665039 1390.826538,326.466919 
	C1443.386475,340.312531 1495.024414,357.048981 1545.856689,376.283112 
	C1549.131104,377.522095 1552.286499,378.991699 1555.584473,381.151978 
	C1558.122681,384.745422 1557.330078,388.517944 1557.333618,392.103668 
	C1557.396973,457.243652 1557.375366,522.383667 1557.377808,587.523682 
	C1557.378906,617.511414 1557.363037,647.499146 1557.387451,677.486877 
	C1557.394409,685.976990 1558.023926,686.603821 1566.477173,686.612915 
	C1587.135376,686.635132 1607.793579,686.650635 1628.451782,686.603882 
	C1635.614502,686.587646 1636.596680,685.639771 1636.600220,678.544861 
	C1636.631226,617.903015 1636.691406,557.261047 1636.528931,496.619568 
	C1636.511963,490.323029 1635.690796,484.011169 1635.143555,477.714783 
	C1634.950195,475.489288 1634.593506,472.893616 1637.032349,472.063232 
	C1639.955444,471.067963 1640.918823,473.816833 1641.958374,475.888885 
	C1658.237427,508.337006 1673.843262,541.114197 1689.550903,573.838745 
	C1704.682983,605.364807 1719.663940,636.963684 1734.887695,668.446350 
	C1736.699097,672.192139 1738.367310,676.012268 1740.055664,679.812500 
	C1742.215454,684.674072 1745.497925,686.759338 1750.942505,686.698303 
	C1769.598999,686.488831 1788.260376,686.530151 1806.918091,686.677795 
	C1811.874390,686.716980 1814.994873,684.948669 1817.125122,680.418762 
	C1823.998291,665.802429 1830.967896,651.229492 1837.826660,636.606934 
	C1844.614380,622.135559 1851.498779,607.709290 1858.242188,593.216309 
	C1863.509644,581.895325 1869.009888,570.680969 1874.243774,559.341736 
	C1874.939453,557.834351 1875.651978,556.317993 1877.112549,554.793579 
	C1880.009155,553.266418 1882.175659,554.059570 1884.373169,555.617493 
	C1894.271484,562.635315 1904.210571,569.595764 1913.960083,576.820557 
	C1915.951782,578.296448 1918.134033,579.662720 1918.492920,582.913330 
	C1919.392578,586.593506 1919.400635,589.918213 1919.400757,593.249023 
	C1919.402222,621.195740 1919.375122,649.142395 1919.412842,677.089111 
	C1919.424316,685.570251 1920.432739,686.575073 1928.875122,686.588623 
	C1949.003418,686.620850 1969.131592,686.627319 1989.259888,686.585266 
	C1997.503662,686.567993 1998.468262,685.525146 1998.608032,677.447510 
	C1998.754517,668.970703 1998.171387,660.481812 1999.131958,651.617432 
	C2000.896118,648.422119 2003.020630,648.909180 2005.127319,650.508850 
	C2011.225342,655.139160 2016.972046,660.192871 2022.084229,665.888855 
	C2026.541992,670.855591 2031.224121,675.591919 2036.083496,680.142456 
	C2039.213501,683.073853 2040.300049,682.679688 2041.393433,678.568665 
	C2045.805664,661.980164 2051.624268,645.826904 2056.597168,629.411926 
	C2057.333252,626.982178 2057.269775,623.380371 2061.713379,623.775879 
z"/>
<path fill="#000000" opacity="1.000000" stroke="none" 
	d="
M1.338241,684.224609 
	C1.000000,457.945160 1.011786,231.890335 0.901526,5.835553 
	C0.899639,1.966337 1.418014,0.862641 5.660143,0.874310 
	C71.127274,1.054392 136.595047,1.000000 202.531342,1.000000 
	C204.475220,4.204535 202.060257,4.681908 199.946655,5.227160 
	C195.593018,6.350283 191.180115,7.226463 186.801666,8.251357 
	C175.846100,10.815791 165.562332,15.055904 155.678452,20.343569 
	C151.351257,22.658529 151.033752,23.904465 153.387375,28.227430 
	C164.076447,47.860291 175.838699,66.803833 189.787643,84.310852 
	C198.820923,95.648361 208.367645,106.508385 219.557770,115.846733 
	C224.305298,119.808609 223.970154,122.153137 219.067261,126.162666 
	C213.142090,131.008148 207.649811,136.359207 201.647415,141.120941 
	C197.499817,144.411255 195.391769,144.677628 190.888824,141.676804 
	C184.479477,137.405533 179.020721,132.089310 173.947250,126.285805 
	C154.253647,103.758476 138.029434,78.763809 121.921768,53.675636 
	C118.409683,48.205463 118.244217,48.149155 113.784401,53.016590 
	C94.925262,73.599358 83.404274,97.869041 78.549538,125.219955 
	C72.651108,158.450912 77.447395,190.282837 92.919434,220.275681 
	C101.536011,236.979095 112.717659,251.862991 127.447479,263.804077 
	C131.324097,266.946716 131.537125,266.835541 133.774948,262.163727 
	C145.685608,237.298264 159.591873,213.646317 176.792068,192.041489 
	C190.641556,174.645401 206.083527,158.895630 224.627380,146.364639 
	C243.054062,133.912796 257.259613,117.681206 267.855377,98.102470 
	C280.056885,75.556587 287.256226,51.448036 291.392792,26.300858 
	C292.331451,20.594568 291.787079,19.338243 286.435455,16.936785 
	C274.533264,11.595864 262.132599,7.787269 249.305359,5.372398 
	C247.093658,4.956022 244.356110,5.077270 244.776810,1.292429 
	C364.354218,1.000000 483.708466,1.000000 603.531372,1.000000 
	C607.045410,3.523527 606.342529,7.064256 606.350708,10.301704 
	C606.432373,42.613621 606.388000,74.925743 606.396790,107.237801 
	C606.397400,109.402985 606.447754,111.569008 606.424072,113.733047 
	C606.384766,117.324562 608.339233,119.625504 610.566040,122.337158 
	C617.472229,130.746918 626.212402,131.908432 636.403809,131.781250 
	C672.707642,131.328262 709.020447,131.604446 745.329895,131.603897 
	C747.161987,131.603867 748.994507,131.626480 750.826172,131.586044 
	C756.324280,131.464706 757.818848,130.435822 757.899170,126.748184 
	C758.021790,121.116661 755.733032,118.026627 750.982666,117.517540 
	C748.994751,117.304520 746.988525,117.399414 744.990234,117.399002 
	C713.844055,117.392578 682.697937,117.398712 651.551758,117.393356 
	C648.886963,117.392899 646.220154,117.442238 643.558289,117.304230 
	C633.897522,116.803337 628.756042,111.789856 628.695190,102.183418 
	C628.496765,70.871552 628.574585,39.558567 628.668762,8.246140 
	C628.675598,5.961380 628.434143,3.517946 630.671509,1.337373 
	C746.354248,1.000000 861.708435,1.000000 977.531372,1.000000 
	C979.445435,4.644035 976.620300,4.834568 974.403015,5.255063 
	C966.045166,6.840071 957.859924,9.009701 949.803589,11.760586 
	C940.013855,15.103312 930.175354,18.779209 921.535645,24.168808 
	C913.200012,29.368757 905.300476,35.684944 898.182617,42.703323 
	C895.991150,44.864159 896.010071,46.639927 899.117676,47.996628 
	C902.016968,49.262383 904.859436,50.672329 907.869568,51.652248 
	C913.817932,53.588684 918.503174,50.161087 918.598877,43.804733 
	C918.666504,39.312218 917.413513,34.919434 917.680298,30.377083 
	C917.876892,27.029724 918.971924,24.853218 922.239685,23.456299 
	C926.518311,21.627186 930.768616,19.723452 935.096802,18.010262 
	C938.947449,16.486078 942.053467,17.153330 944.716858,20.706034 
	C947.417542,24.308613 949.767761,28.139921 952.458435,31.737125 
	C956.714722,37.427422 962.426331,37.048252 965.886230,30.831415 
	C967.747620,27.486790 969.681946,24.184469 971.512329,20.820333 
	C974.123840,16.020206 976.504333,14.928072 981.745911,16.017481 
	C986.143677,16.931505 990.507263,18.026068 994.809875,19.334112 
	C998.215210,20.369371 1000.235596,22.571280 1000.179688,26.240980 
	C1000.108398,30.925867 1001.163940,35.498222 1001.387756,40.156994 
	C1001.724304,47.161469 1006.037903,49.543110 1012.247986,46.068336 
	C1015.879089,44.036541 1019.639526,42.229572 1023.165466,40.022644 
	C1026.613770,37.864353 1029.715210,37.974091 1032.640625,40.901695 
	C1036.171509,44.435402 1039.759888,47.909615 1043.210205,51.526085 
	C1045.922974,54.369457 1046.134888,57.290821 1044.126831,60.578426 
	C1041.871338,64.271233 1039.626465,67.974876 1037.491455,71.736504 
	C1033.942871,77.988625 1036.692749,82.974083 1043.933105,83.567039 
	C1048.725586,83.959518 1053.564087,83.286217 1058.334106,84.605972 
	C1061.595459,85.508270 1063.527588,87.230705 1064.227051,90.563744 
	C1065.183960,95.123177 1066.362549,99.634384 1067.184937,104.225861 
	C1067.858643,107.988792 1066.571533,110.694679 1063.182861,112.502739 
	C1059.361450,114.541695 1055.426880,116.356544 1051.615479,118.409828 
	C1044.910645,122.021790 1044.422974,127.801956 1050.492432,132.601013 
	C1053.884888,135.283386 1057.458008,137.741791 1060.843994,140.433136 
	C1065.073364,143.794861 1065.679565,146.414871 1063.176758,151.304245 
	C1061.707153,154.175003 1061.478638,157.361389 1060.296021,160.297165 
	C1057.876099,166.305038 1055.710815,167.902344 1049.262817,167.070206 
	C1045.629395,166.601303 1041.979126,166.371964 1038.349731,165.901810 
	C1031.999268,165.079178 1027.543701,170.120163 1028.999268,176.473740 
	C1029.895386,180.385391 1031.635864,184.011307 1033.080811,187.733078 
	C1036.409424,196.305893 1033.416870,201.619690 1023.730225,203.540787 
	C1019.508972,203.954697 1015.685974,204.684586 1011.473694,203.522034 
	C1008.432800,203.843155 1006.368347,202.790192 1004.330566,201.133194 
	C997.248474,195.374619 992.788269,195.763123 986.627319,202.446671 
	C985.828979,203.312714 984.902954,203.974258 983.407837,204.497223 
	C974.009827,205.678116 964.953369,205.786270 955.506165,205.853577 
	C951.607849,205.625839 949.548462,202.437256 946.182983,201.713211 
	C941.505798,200.706924 937.345032,200.361633 934.059814,204.637436 
	C933.361572,205.546219 932.406616,206.277573 930.787354,206.511856 
	C923.625183,209.458130 916.427734,207.739029 909.060303,208.573059 
	C903.155273,207.448822 901.644836,205.317459 902.621643,199.995193 
	C903.463623,195.406967 904.940369,190.962662 905.818665,186.384521 
	C907.148560,179.452148 900.832764,173.241135 893.859436,174.542923 
	C889.443542,175.367249 885.120483,176.623795 880.667114,177.286896 
	C877.138245,177.812332 874.546814,176.687286 872.666260,173.584854 
	C870.419556,169.878311 868.237244,166.150665 866.507935,162.168900 
	C865.080750,158.882843 865.520996,156.089096 868.336121,153.654922 
	C871.611877,150.822342 874.587402,147.664093 877.594971,144.550781 
	C883.522705,138.414795 882.014343,130.654526 874.247070,127.338745 
	C870.726379,125.835800 867.122864,124.509453 863.507874,123.276413 
	C859.187073,121.802597 857.547913,118.969238 857.701355,114.571228 
	C857.852722,110.231339 858.585938,105.964417 859.117310,101.681953 
	C859.517639,98.455406 861.702271,96.501839 865.027283,95.727669 
	C869.732239,94.632217 874.546509,94.133812 879.226685,92.927185 
	C886.153992,91.141228 888.773743,84.467781 884.734924,78.695648 
	C883.113220,76.378075 881.415039,74.108559 879.649780,71.899673 
	C877.090332,68.697113 875.887695,68.740051 873.691650,72.099670 
	C862.210266,89.664284 855.478577,108.982071 852.268677,129.650665 
	C848.349548,154.886261 851.381897,179.356598 859.798157,203.321091 
	C860.698425,205.884598 862.468384,208.485397 860.567566,211.751007 
	C856.975769,215.399246 852.468018,214.625122 848.496704,215.101318 
	C816.574585,218.929062 784.820557,223.800919 753.223816,229.727371 
	C749.465393,230.432327 745.716797,231.291840 741.422485,231.069489 
	C739.940186,230.493332 738.937073,230.015335 737.686279,230.038620 
	C697.361023,230.789001 657.031677,230.207153 616.704224,230.326538 
	C611.971069,230.340530 608.076355,231.219910 604.679199,234.960754 
	C595.076355,245.534927 578.248718,245.755722 568.164246,238.377777 
	C557.420288,230.517365 552.564636,214.292664 557.775940,202.148697 
	C561.660156,193.097229 567.815063,186.525848 577.575378,183.852234 
	C587.268494,181.197006 595.892456,183.551239 602.946106,190.369019 
	C607.016602,194.303391 611.308594,195.713425 616.810547,195.696671 
	C659.476013,195.566803 702.142090,195.634445 744.807983,195.616455 
	C753.447510,195.612808 753.852661,195.264618 755.973938,186.879623 
	C757.077454,182.517853 758.233032,178.156982 758.591858,173.657501 
	C758.986511,168.709076 758.040405,167.677231 753.222656,167.413757 
	C752.058044,167.350067 750.889893,167.376724 749.723267,167.376678 
	C708.390686,167.375351 667.057922,167.427338 625.725708,167.308182 
	C620.418457,167.292892 616.259399,168.695999 612.209290,172.319885 
	C601.122437,182.239990 582.117432,179.722794 573.170715,167.486450 
	C565.499146,156.994125 564.421936,145.719070 569.919006,134.006836 
	C571.820801,129.954697 572.666870,125.924263 572.659119,121.494507 
	C572.598938,86.995262 572.625671,52.495838 572.622131,17.996471 
	C572.622009,16.829899 572.666016,15.659289 572.560608,14.497991 
	C572.194519,10.465628 570.903198,9.389902 567.029602,10.511409 
	C559.012146,12.832666 551.260864,15.852326 543.874329,19.801922 
	C540.475525,21.619295 539.377441,24.390406 539.379517,28.024008 
	C539.385132,38.023678 539.378113,48.023525 539.377258,58.023281 
	C539.374817,85.022781 539.408813,112.022400 539.338989,139.021683 
	C539.327209,143.553055 540.503784,147.224976 543.428040,150.897079 
	C550.703125,160.032623 551.456543,170.684402 547.367004,181.138718 
	C543.055847,192.159348 534.413696,198.823883 522.424683,200.077087 
	C509.986786,201.377213 496.163879,190.509338 492.898743,177.623856 
	C489.914856,165.848328 493.427948,155.926575 501.234802,147.228012 
	C503.367279,144.851944 504.601349,142.410934 504.606506,139.210037 
	C504.652374,110.710663 504.620636,82.211319 504.603363,53.711975 
	C504.602875,52.892715 504.650543,52.034092 503.854736,51.102077 
	C501.591766,51.409134 500.481720,53.394539 499.171356,54.945900 
	C480.420959,77.144043 468.460846,102.553123 464.854156,131.403290 
	C459.212830,176.528870 471.285797,216.476730 501.510223,250.721069 
	C511.285492,261.796448 522.556458,271.042358 535.240112,278.602783 
	C536.939209,279.615570 538.723389,280.590393 540.238770,282.518372 
	C541.193542,286.883240 538.064392,287.547913 535.470337,288.490845 
	C517.973572,294.850494 500.521271,301.334961 483.272583,308.335297 
	C456.630035,319.148132 430.276489,330.620514 404.287781,342.948975 
	C384.606384,352.285370 365.129822,362.002563 345.883514,372.196594 
	C343.564911,373.424683 341.295563,374.955872 338.105042,374.906403 
	C329.475830,372.518585 322.443115,367.550903 314.583191,364.345306 
	C294.867188,356.304352 274.413513,351.246521 253.376099,348.438202 
	C238.366318,346.434540 223.228928,345.160065 208.123276,345.490845 
	C175.547577,346.204132 143.376724,349.826447 112.868484,362.457672 
	C92.017700,371.090485 73.732574,383.236633 60.697922,402.021851 
	C47.338188,421.275574 42.782631,442.806305 45.092453,466.055206 
	C47.058872,485.847748 55.131241,502.450378 69.735336,515.866882 
	C76.019241,521.639771 83.159706,526.213379 90.708046,530.186157 
	C93.460442,531.634766 96.692802,532.436462 98.650421,535.700562 
	C99.280472,539.048706 97.167152,540.694092 95.346916,542.316528 
	C87.151917,549.621094 78.773598,556.716980 70.455315,563.880676 
	C66.675781,567.135620 62.861778,570.351685 59.091503,573.618103 
	C57.585159,574.923096 56.209312,576.431641 53.665401,576.627686 
	C49.161991,576.844360 45.079144,577.442322 40.931480,577.476379 
	C36.582668,577.512024 35.167225,579.015625 35.573273,583.307739 
	C35.886162,586.615173 35.856369,589.877197 35.755470,593.563843 
	C35.755810,596.187500 34.094250,597.475220 32.846367,598.988770 
	C18.024229,616.966858 17.931833,617.133484 14.398276,640.234924 
	C12.336034,653.717285 8.324244,666.757324 5.386713,680.041138 
	C4.955671,681.990356 4.813940,684.594116 1.338241,684.224609 
z"/>
<path fill="#000000" opacity="1.000000" stroke="none" 
	d="
M1793.776611,1.310075 
	C1881.789429,1.000000 1969.579102,1.042495 2057.368164,0.872077 
	C2061.670166,0.863726 2062.096680,2.052833 2062.094482,5.863820 
	C2061.987549,206.930069 2062.000000,407.996368 2062.000000,609.531372 
	C2059.166504,612.185425 2057.361328,610.046814 2055.627441,608.335632 
	C2050.906250,603.676208 2046.172241,599.027893 2041.515015,594.304199 
	C2029.408325,582.024536 2016.267822,570.890991 2003.218994,559.653870 
	C2001.605225,558.264099 1999.727661,557.029541 1999.503662,554.183899 
	C1998.633789,549.165222 1998.599731,544.510071 1998.601562,539.840881 
	C1998.622192,484.014526 1998.614990,428.188202 1998.614746,372.361847 
	C1998.614746,370.195465 1998.630127,368.028900 1998.604736,365.862701 
	C1998.517090,358.394806 1997.621704,357.416229 1990.257935,357.405975 
	C1959.928345,357.363831 1929.598389,357.472839 1899.269775,357.312195 
	C1893.401611,357.281128 1890.387329,359.643036 1887.952759,364.931061 
	C1880.640137,380.815155 1873.083374,396.592529 1865.549683,412.377258 
	C1860.531738,422.891510 1855.837158,433.561005 1850.021729,444.120544 
	C1847.180420,445.781281 1844.948242,445.013519 1842.697510,443.603516 
	C1819.413208,429.017181 1795.848267,414.904663 1771.889404,401.446838 
	C1739.494263,383.250397 1706.381470,366.468414 1672.840210,350.495422 
	C1644.865234,337.173157 1616.454346,324.865234 1587.713013,313.322418 
	C1553.700684,299.662659 1519.152832,287.466827 1484.303101,276.119659 
	C1481.798584,275.304199 1479.102173,274.841095 1476.814331,272.661011 
	C1475.823730,269.196625 1478.308105,267.769562 1480.118774,266.276154 
	C1495.879272,253.277390 1508.562744,237.733856 1517.840210,219.600540 
	C1527.264526,201.179993 1532.693604,181.598663 1533.753540,160.779999 
	C1534.905151,138.160416 1531.804443,116.364120 1523.114380,95.387451 
	C1510.388672,64.669075 1489.852295,40.752449 1461.208740,23.814138 
	C1446.583862,15.165770 1430.904419,9.424321 1414.246094,6.112742 
	C1411.440552,5.555009 1407.037476,6.609584 1406.776123,1.312489 
	C1521.687622,1.000000 1636.375122,1.000000 1751.531372,1.000000 
	C1753.507080,4.647609 1750.598022,4.834082 1748.436157,5.347121 
	C1740.333862,7.269779 1732.132080,8.817272 1724.274048,11.654132 
	C1702.474976,19.523792 1682.967407,31.276333 1666.974609,48.035393 
	C1643.869629,72.247299 1629.723389,101.013153 1626.215942,134.557648 
	C1621.766357,177.111206 1632.787354,215.111938 1660.617188,247.833679 
	C1685.955811,277.626312 1718.354492,294.472107 1757.146729,298.722046 
	C1799.238892,303.333527 1836.609741,291.554291 1869.145996,264.729614 
	C1882.174438,253.988281 1893.057617,241.204071 1901.382935,226.057220 
	C1899.373779,224.782547 1897.652832,225.866196 1896.039673,226.285217 
	C1890.116699,227.823654 1884.055664,227.830673 1878.155762,227.006989 
	C1867.529541,225.523499 1860.880615,219.111145 1857.930176,208.794022 
	C1856.993652,205.519165 1856.950317,201.952728 1854.833618,198.128265 
	C1849.788696,205.150452 1844.822876,211.323822 1839.052490,216.825104 
	C1834.609009,221.061172 1829.722168,223.242142 1823.442749,223.385147 
	C1813.635132,223.608521 1805.696045,213.847198 1809.709106,202.567596 
	C1813.348755,192.337601 1823.480225,187.572922 1833.942017,190.622910 
	C1835.062866,190.949661 1836.161621,191.341080 1837.272583,191.696976 
	C1846.883179,194.776428 1854.107056,188.181686 1852.045288,178.194061 
	C1850.462402,170.526718 1848.691284,162.903687 1846.586670,155.360687 
	C1844.184692,146.752228 1840.028809,144.031754 1831.182373,145.116348 
	C1828.291260,145.470795 1824.989502,146.533066 1823.550781,142.548828 
	C1822.482300,139.590195 1824.518555,135.830414 1828.407227,134.334854 
	C1837.677612,130.769424 1847.254150,128.602081 1857.253418,129.951004 
	C1868.920410,131.524918 1876.342529,139.310959 1879.050903,152.214951 
	C1879.399048,153.873962 1878.623169,156.515060 1880.903198,156.900894 
	C1882.895264,157.237976 1883.604858,154.715927 1884.694458,153.356659 
	C1889.263916,147.656158 1893.260864,141.495148 1899.139771,136.909668 
	C1904.032593,133.093292 1909.330811,131.620819 1915.470337,132.764725 
	C1920.217163,133.649124 1920.410034,133.476181 1919.621338,128.645599 
	C1918.467651,121.580757 1917.131714,114.552780 1914.891479,107.710464 
	C1913.683472,104.020760 1911.622070,102.309944 1907.636230,102.316978 
	C1880.804443,102.364372 1853.972046,102.376549 1827.140259,102.307701 
	C1822.866577,102.296730 1820.958740,104.321800 1819.633301,108.091553 
	C1811.068359,132.451843 1802.712769,156.884125 1794.281372,181.290298 
	C1791.017456,190.738113 1787.683594,200.161469 1784.440552,209.617020 
	C1782.218018,216.097229 1779.034668,216.975845 1774.405029,212.030670 
	C1762.349121,199.153351 1750.047607,186.502991 1738.288452,173.349380 
	C1734.840454,169.492508 1731.056641,165.973938 1727.444946,162.282593 
	C1725.118408,159.904755 1722.830078,159.902252 1720.554077,162.306122 
	C1716.309082,166.789398 1711.485718,170.641617 1706.979736,174.835571 
	C1703.939575,177.665009 1701.055420,178.074112 1697.537964,175.968399 
	C1694.252075,174.001343 1690.887817,172.160385 1687.718994,170.006271 
	C1683.236206,166.959076 1682.890381,163.942398 1687.011597,160.395752 
	C1694.453003,153.991730 1701.913330,147.608810 1709.371216,141.223312 
	C1713.669312,137.543106 1717.922485,133.812164 1722.185059,130.092255 
	C1727.798950,125.193069 1730.761475,125.446098 1735.388550,131.215729 
	C1746.950806,145.632751 1758.298340,160.219284 1769.764893,174.711899 
	C1770.592896,175.758347 1771.505859,176.730499 1772.403809,177.716125 
	C1773.845215,179.297989 1774.691162,178.553619 1775.213745,176.951447 
	C1775.781860,175.209503 1776.152466,173.409454 1776.596558,171.631958 
	C1785.922852,134.293671 1795.236328,96.952187 1804.613525,59.626671 
	C1807.028442,50.014359 1807.429443,49.694832 1817.521851,49.673767 
	C1835.521118,49.636200 1853.520264,49.664825 1871.519531,49.661190 
	C1872.852783,49.660923 1874.189819,49.720516 1875.517944,49.627628 
	C1876.616333,49.550808 1878.065918,49.924026 1878.469360,48.446297 
	C1878.761963,47.374287 1877.752197,46.662807 1877.088989,45.939156 
	C1871.768433,40.134975 1865.599854,35.323101 1859.232422,30.750677 
	C1840.904297,17.589420 1820.407349,9.632557 1798.357788,5.397954 
	C1796.138184,4.971684 1793.427612,5.072198 1793.776611,1.310075 
z"/>
<path fill="#F7941D" opacity="1.000000" stroke="none" 
	d="
M98.120842,537.250488 
	C89.298111,531.836548 80.240189,527.519653 72.286140,521.145935 
	C57.540905,509.330322 48.124001,494.360962 44.060234,476.036652 
	C42.202885,467.661499 41.446190,459.087250 42.037941,450.508545 
	C43.610710,427.708038 50.991352,407.359436 66.992607,390.417755 
	C85.436676,370.889709 108.450455,359.917267 133.885666,352.872986 
	C148.720337,348.764526 163.709976,346.130463 179.040558,344.917572 
	C191.719803,343.914429 204.399933,342.573334 217.105377,343.076691 
	C249.193909,344.347992 280.831451,348.550659 311.041138,360.126831 
	C320.130859,363.609985 328.820892,368.112854 337.628784,373.084534 
	C338.869293,377.234192 335.445740,378.253387 333.029327,379.540009 
	C315.618256,388.810608 298.650879,398.850037 281.672180,408.871613 
	C277.676788,411.229828 273.715057,413.645905 269.727081,416.017609 
	C267.990784,417.050171 266.256561,417.995087 263.758026,417.356781 
	C248.935593,411.921478 234.051559,408.758881 218.629761,408.366302 
	C201.457947,407.929138 184.387024,408.676849 167.725113,413.369354 
	C157.864471,416.146393 148.474060,419.961945 141.302811,427.650208 
	C132.910995,436.647034 131.778046,450.493195 138.559830,459.267914 
	C141.945633,463.648712 146.758057,465.958862 151.789658,467.811707 
	C159.955109,470.818512 168.504440,472.080780 177.450974,473.366028 
	C181.153137,475.689880 184.970596,474.684540 188.518188,474.973145 
	C207.534119,476.520172 226.419083,479.281342 245.426270,480.877655 
	C250.806107,481.329498 256.355927,480.701569 261.733612,483.483948 
	C266.397095,486.168579 271.329895,485.269043 275.955933,485.824341 
	C301.762268,488.921722 327.153748,493.319427 350.398773,505.801331 
	C375.442719,519.249268 391.354156,539.537598 397.085876,567.682251 
	C401.600189,589.849182 398.764740,611.089722 388.835938,631.122192 
	C379.396118,650.167908 364.827423,664.765198 346.289825,675.275879 
	C328.007355,685.641907 308.181549,691.817078 287.715576,695.802917 
	C279.416138,697.419250 270.978760,698.992798 262.416595,698.989868 
	C261.178223,698.989441 260.108704,699.194519 259.684753,700.640137 
	C231.312439,701.000000 202.624878,701.000000 173.468658,701.000000 
	C169.304947,698.955505 165.175583,699.827271 161.322693,699.666687 
	C140.055054,698.780273 120.045433,692.940063 100.558517,684.934875 
	C82.711868,677.603577 67.456627,666.534973 54.516933,652.252563 
	C51.832092,649.289124 49.209152,646.270813 47.784016,642.011475 
	C46.637024,638.303040 48.858517,636.338989 50.905697,634.419678 
	C61.662693,624.334656 72.924126,614.818237 84.224976,605.360168 
	C94.637642,596.645386 105.265923,588.185913 116.135780,580.038025 
	C118.065826,578.591248 119.974571,577.352234 122.789429,578.822632 
	C125.066429,581.926208 125.190239,585.354797 125.958130,588.560730 
	C130.533737,607.664490 143.729691,618.890320 160.760422,626.427673 
	C174.473862,632.496887 189.033142,634.696289 203.937546,635.901794 
	C225.255569,637.626038 246.187408,636.032959 266.748352,630.443909 
	C278.456543,627.261292 289.359924,622.282776 296.546875,611.688965 
	C306.239563,597.401550 302.038513,579.758911 286.811188,571.562805 
	C276.378387,565.947327 264.933929,563.657471 253.288834,562.362549 
	C225.023895,559.219421 196.699066,556.646484 168.430283,553.536377 
	C166.109695,553.281067 163.768280,553.390015 161.033218,553.111572 
	C154.017029,551.288452 147.136978,551.684814 140.447296,550.425110 
	C128.642166,548.201965 116.918472,545.729370 105.619522,541.570679 
	C103.000412,540.606689 100.149414,539.992493 98.120842,537.250488 
z"/>
<path fill="#662D91" opacity="1.000000" stroke="none" 
	d="
M1793.531372,1.000000 
	C1793.576416,2.783050 1794.828491,2.813090 1796.021729,2.979036 
	C1823.276245,6.769015 1847.338745,17.675303 1868.680542,35.007912 
	C1874.635864,39.844414 1879.541016,45.559441 1885.211304,50.722061 
	C1883.261230,52.700623 1881.331543,51.955662 1879.636963,51.960316 
	C1857.806030,52.020264 1835.974609,52.063679 1814.144287,51.937897 
	C1810.492188,51.916855 1808.788940,52.626976 1807.786987,56.739059 
	C1797.683350,98.206474 1787.257080,139.595291 1776.897217,181.000153 
	C1776.620239,182.107071 1776.068359,183.145218 1775.451904,184.702271 
	C1770.507935,180.646439 1767.209351,175.272934 1763.346680,170.511993 
	C1752.670410,157.352921 1742.404175,143.861115 1731.979858,130.497803 
	C1730.343750,128.400406 1728.861572,127.558372 1726.380737,129.784912 
	C1721.113037,134.512756 1715.513550,138.868790 1710.129272,143.469650 
	C1702.470215,150.014160 1694.874878,156.633530 1687.274780,163.246719 
	C1686.533569,163.891708 1685.949463,164.717331 1685.085327,165.692963 
	C1690.411987,168.929947 1695.648193,171.979126 1700.730713,175.265915 
	C1702.755737,176.575455 1703.426514,174.967758 1704.408569,174.055740 
	C1710.000000,168.863510 1715.618286,163.695709 1721.065430,158.354538 
	C1723.309570,156.153992 1724.486450,155.392975 1727.160278,158.391663 
	C1733.338745,165.321182 1740.030151,171.794296 1746.281006,178.689514 
	C1756.082520,189.501129 1766.181763,200.043137 1776.197754,210.658981 
	C1777.307739,211.835571 1778.258301,213.286819 1780.387695,213.936417 
	C1785.247925,199.870590 1790.078125,185.813919 1794.961792,171.775772 
	C1802.900757,148.955246 1810.944214,126.170540 1818.739258,103.301041 
	C1819.632324,100.681084 1820.829956,99.971191 1823.312622,99.974945 
	C1852.642944,100.019310 1881.973145,100.013008 1911.303467,99.979729 
	C1913.239136,99.977539 1914.878662,100.068756 1915.645508,102.275490 
	C1919.493408,113.349617 1922.031860,124.700699 1922.966797,136.394577 
	C1923.027100,137.148972 1922.775635,137.928345 1922.651611,138.822968 
	C1907.863159,129.121155 1899.816650,138.083084 1891.256592,148.507065 
	C1887.610718,152.946808 1884.357666,157.708054 1880.873901,162.283417 
	C1880.413208,162.888565 1879.598511,163.703156 1879.023438,163.646774 
	C1877.646851,163.511780 1878.182495,162.154816 1878.004272,161.264481 
	C1876.693726,154.718750 1876.607178,147.912964 1872.655273,142.002853 
	C1868.329590,135.533875 1862.110474,132.839355 1854.810547,132.031586 
	C1846.046997,131.061844 1837.835815,133.787430 1829.627930,136.258331 
	C1828.281250,136.663742 1826.757446,137.227951 1826.084717,138.782425 
	C1825.497803,140.139008 1824.461548,141.519409 1825.229736,143.007431 
	C1826.219971,144.925400 1827.492432,142.872253 1828.684692,142.978668 
	C1831.632202,143.241745 1834.363037,141.358856 1837.480835,142.209747 
	C1843.881714,143.956604 1847.534546,148.072540 1848.970581,154.441162 
	C1850.991577,163.404297 1852.865356,172.413086 1855.320801,181.258347 
	C1856.085571,184.013168 1855.414307,185.785995 1853.889893,187.512390 
	C1851.688232,190.005692 1849.236816,192.279572 1846.876099,194.630981 
	C1843.931152,197.564285 1840.868774,195.582047 1838.126953,194.478958 
	C1831.380127,191.764511 1824.826904,190.651489 1818.298340,194.919617 
	C1813.326172,198.170227 1811.028931,202.872818 1811.030518,208.687012 
	C1811.031860,213.938446 1813.596802,217.727448 1818.254761,220.078339 
	C1823.331421,222.640579 1831.285767,220.704147 1836.501831,216.042847 
	C1843.352905,209.920532 1848.650146,202.543579 1853.921143,195.134064 
	C1854.692017,194.050262 1855.342773,192.352173 1856.651611,192.832840 
	C1857.591187,193.177917 1857.828247,194.961456 1858.055298,196.338104 
	C1859.385254,204.401199 1859.926392,212.693451 1866.389648,219.007980 
	C1870.460815,222.985397 1875.353760,224.420761 1880.634888,224.951172 
	C1888.485718,225.739639 1896.095581,224.256287 1903.508057,221.722824 
	C1904.452026,221.400253 1905.268921,220.777725 1906.606445,221.498749 
	C1903.088501,229.658966 1897.995972,236.907852 1892.559570,243.794708 
	C1880.830933,258.652466 1867.127808,271.427094 1850.591064,280.907104 
	C1834.187256,290.311035 1816.924927,297.199310 1798.071899,300.142975 
	C1786.185547,301.998871 1774.249756,302.776917 1762.402100,301.830536 
	C1738.167358,299.894745 1715.322876,293.075287 1694.487305,280.065643 
	C1683.058594,272.929657 1672.550537,264.715881 1663.421021,254.856339 
	C1644.328247,234.236679 1631.721924,210.254410 1625.867310,182.630798 
	C1622.737427,167.863754 1621.973267,152.933563 1623.242798,138.142136 
	C1625.576660,110.951225 1634.670532,85.885918 1650.863647,63.681644 
	C1673.020020,33.300236 1702.464844,13.824164 1739.002319,4.924970 
	C1743.385498,3.857350 1748.077271,4.068237 1752.085938,1.406045 
	C1765.687622,1.000000 1779.375122,1.000000 1793.531372,1.000000 
z"/>
<path fill="#ED1C24" opacity="1.000000" stroke="none" 
	d="
M1406.531372,1.000000 
	C1406.161133,2.923686 1407.712402,2.828812 1408.759521,2.965926 
	C1435.531738,6.471779 1459.301514,17.178328 1480.235962,33.895599 
	C1504.364380,53.163399 1520.802734,77.886070 1530.001709,107.403389 
	C1533.780884,119.529900 1535.434082,131.909378 1536.158569,144.603058 
	C1537.179810,162.498962 1535.044312,179.921829 1529.820435,196.881302 
	C1524.796143,213.193024 1517.028076,228.262604 1506.627319,241.941772 
	C1498.572266,252.535812 1489.212646,261.796082 1479.083496,270.340454 
	C1478.605103,270.744049 1477.924927,270.908478 1477.116211,271.432739 
	C1476.940552,274.256134 1475.078369,275.406982 1473.266968,276.653137 
	C1450.571289,292.265900 1425.742188,301.563171 1398.053467,303.543030 
	C1380.593750,304.791504 1363.410767,304.037720 1346.630371,299.289581 
	C1322.590942,292.487518 1301.203003,280.909760 1282.668701,263.744751 
	C1269.143311,251.218582 1258.657837,236.682083 1249.363159,220.573151 
	C1245.736938,212.309677 1241.916138,204.564926 1239.627686,196.156784 
	C1227.611572,152.007401 1232.269653,110.080078 1256.105103,70.670998 
	C1259.552002,64.971878 1262.411255,64.605125 1267.110229,69.396637 
	C1279.582031,82.114265 1291.834595,95.041763 1303.970581,108.083588 
	C1310.828491,115.453651 1310.985840,115.223793 1317.971436,108.280296 
	C1322.218384,104.058846 1326.242310,99.614784 1331.021973,95.923004 
	C1334.446167,93.278267 1334.522949,91.249298 1331.211426,88.096710 
	C1323.238281,80.506180 1316.360718,71.875259 1308.416382,64.280228 
	C1301.902100,58.052467 1296.235840,51.051468 1289.909912,44.659466 
	C1284.586670,39.280697 1284.666748,36.391712 1290.800415,31.734381 
	C1302.370605,22.948999 1314.635132,15.377796 1328.172241,9.810468 
	C1339.859009,5.004085 1351.933350,2.496003 1364.710205,1.241144 
	C1378.687622,1.000000 1392.375122,1.000000 1406.531372,1.000000 
z"/>
<path fill="#000000" opacity="1.000000" stroke="none" 
	d="
M1364.531372,1.000000 
	C1365.839111,2.923609 1364.287598,2.832229 1363.240723,2.965405 
	C1336.604736,6.353933 1313.340454,17.606506 1292.073486,33.490765 
	C1290.216919,34.877411 1288.593140,36.575832 1286.634399,38.333038 
	C1294.746094,45.325455 1300.838867,53.471054 1308.020386,60.615219 
	C1317.552734,70.097984 1326.704590,79.962265 1336.129517,89.554993 
	C1337.874634,91.331116 1338.405273,92.515343 1336.245117,94.295509 
	C1327.904541,101.169029 1320.471802,109.006142 1312.891357,116.677139 
	C1311.196533,118.392128 1310.202148,117.817329 1308.868164,116.396515 
	C1297.981812,104.801552 1287.102051,93.199867 1276.128784,81.687241 
	C1271.422852,76.749977 1266.500488,72.018982 1261.422974,66.940620 
	C1251.446533,81.579514 1244.652100,97.322296 1240.039673,114.096489 
	C1235.281738,131.400604 1235.116089,149.136551 1236.235352,166.734665 
	C1237.284546,183.228165 1241.821777,199.159943 1249.029419,214.187546 
	C1249.656006,215.493927 1250.146240,216.865631 1250.840088,218.537292 
	C1249.670410,221.291855 1247.552124,220.919891 1245.336182,220.637146 
	C1228.232422,218.454712 1211.163208,216.013016 1194.019531,214.126053 
	C1176.225464,212.167465 1158.410278,210.465546 1140.174561,208.855225 
	C1138.126831,207.955917 1137.618774,206.441116 1136.949463,204.863358 
	C1130.979492,190.790878 1120.428711,182.083557 1105.395996,179.520477 
	C1086.514404,176.301178 1071.542603,182.887192 1060.691650,198.753296 
	C1059.403564,200.636612 1058.514648,202.928757 1055.789917,204.006531 
	C1050.899414,204.083847 1046.387817,204.878464 1041.551270,203.604218 
	C1040.004517,202.610001 1039.045044,201.319595 1039.341431,200.075867 
	C1040.666626,194.513565 1037.064575,191.055817 1034.264893,187.190887 
	C1030.338989,181.771561 1030.399902,180.196106 1034.234985,174.767670 
	C1035.393799,173.127548 1036.771973,171.687912 1038.011963,170.131332 
	C1040.324585,167.227982 1043.135986,166.675644 1046.472046,167.868225 
	C1049.292969,168.876678 1052.015015,170.168121 1054.871948,171.054367 
	C1059.422363,172.465912 1062.460815,170.331512 1062.654541,165.605453 
	C1062.770142,162.784546 1062.638550,159.968811 1062.127441,157.152466 
	C1061.488403,153.631989 1062.966675,151.030594 1066.153320,149.350525 
	C1069.423096,147.626572 1072.918701,146.570618 1076.476685,145.682968 
	C1078.784546,145.107178 1080.691406,145.752441 1082.325928,147.519943 
	C1084.593994,149.972733 1086.448730,152.737839 1088.504883,155.350220 
	C1091.922241,159.691986 1095.544556,159.468262 1098.355347,154.803787 
	C1098.699341,154.232971 1098.979614,153.627380 1099.288818,153.037613 
	C1104.537720,143.030334 1111.231812,141.016083 1121.073486,146.485336 
	C1124.077881,148.154861 1124.573242,151.200302 1125.085571,154.141830 
	C1125.514038,156.601410 1125.183594,159.136734 1125.444092,161.619171 
	C1125.907227,166.031799 1128.279663,167.643677 1132.245605,166.035339 
	C1136.710083,164.224808 1140.504395,161.102814 1145.057373,159.364761 
	C1147.097290,158.586060 1146.593384,156.245972 1146.646606,154.460556 
	C1147.505737,125.545654 1140.391846,98.706444 1125.163574,74.144562 
	C1102.364014,37.370777 1069.452148,15.048025 1027.216064,6.119223 
	C1024.418335,5.527790 1019.993225,6.635261 1019.776245,1.305038 
	C1134.687622,1.000000 1249.375122,1.000000 1364.531372,1.000000 
z"/>
<path fill="#0BA14B" opacity="1.000000" stroke="none" 
	d="
M1019.531372,1.000000 
	C1019.649963,2.327727 1020.396179,2.790026 1021.533752,2.927270 
	C1037.042114,4.798268 1051.675415,9.699867 1065.648926,16.423918 
	C1076.041382,21.424732 1085.626465,27.892286 1094.603394,35.155678 
	C1111.824829,49.089787 1124.935181,66.339783 1134.545898,86.193100 
	C1141.826172,101.232498 1146.360229,117.069336 1148.200562,133.808929 
	C1149.295776,143.771439 1148.506470,153.602112 1149.065674,164.485229 
	C1143.693481,159.848373 1140.885376,164.569733 1137.295654,166.153336 
	C1133.880005,167.660156 1131.055786,171.411652 1126.524170,168.868195 
	C1124.299805,167.619766 1122.952026,166.042816 1123.007935,163.428818 
	C1123.025635,162.596664 1123.003052,161.763641 1123.000000,160.931015 
	C1122.958008,149.393692 1122.885864,149.638092 1112.210327,146.484818 
	C1107.416870,145.068970 1104.815063,146.417099 1103.057617,150.720810 
	C1102.310791,152.549957 1101.341064,154.288925 1100.456299,156.060760 
	C1097.096069,162.790329 1090.803711,163.242615 1086.617065,157.052795 
	C1086.342773,156.647400 1086.192627,156.157669 1085.915894,155.754333 
	C1079.656494,146.628265 1076.002930,145.959869 1066.241089,151.877029 
	C1064.777588,152.764160 1063.576660,153.751068 1064.120972,155.321548 
	C1065.302002,158.729874 1064.695923,162.221085 1065.089111,165.648026 
	C1065.776978,171.644699 1060.358521,175.996353 1054.677490,173.848206 
	C1052.678711,173.092438 1050.751221,172.150711 1048.764526,171.360779 
	C1046.384766,170.414597 1043.393921,167.863617 1041.544800,169.652267 
	C1038.302612,172.788635 1034.609253,176.227982 1033.431396,180.655258 
	C1032.613159,183.730637 1036.076294,186.286209 1038.135010,188.356125 
	C1041.988037,192.230072 1043.127075,196.167694 1041.005005,201.491547 
	C1041.069458,204.544495 1039.414551,205.612686 1037.095825,206.216400 
	C1034.040649,207.011887 1030.938843,207.586105 1027.859131,208.256210 
	C1025.011475,208.875870 1023.738281,210.500671 1023.299316,213.350098 
	C1022.162415,220.729660 1022.468262,221.340393 1030.085327,223.973480 
	C1038.777344,226.978180 1041.228638,230.566437 1040.095459,238.391449 
	C1039.509521,242.436417 1036.154175,244.395462 1033.745117,247.025986 
	C1029.578003,251.576355 1029.333130,253.715393 1032.663818,258.831848 
	C1034.000000,260.884644 1035.700684,261.886749 1038.097534,261.385986 
	C1040.210327,260.944611 1042.339478,260.596313 1044.449829,260.139984 
	C1051.118286,258.698090 1054.387329,260.024475 1057.957520,265.506317 
	C1060.204346,268.956207 1059.591187,275.451538 1056.388306,279.749084 
	C1053.798096,284.398163 1055.349365,287.196320 1061.366211,289.049194 
	C1012.546753,308.480194 966.584351,306.539062 921.661194,281.052734 
	C917.500122,280.999115 914.446838,278.961090 911.469421,276.841003 
	C889.865295,261.457733 873.150085,241.893112 861.430420,218.093643 
	C860.436523,216.075180 858.844849,214.114838 859.915894,211.215698 
	C854.743896,197.520950 850.805481,183.791489 849.157715,169.554871 
	C847.655701,156.576843 847.868713,143.621994 849.758423,130.557159 
	C852.238708,113.408272 857.354675,97.258354 865.101013,81.891289 
	C867.758240,76.619720 871.106873,71.695808 874.157043,66.623512 
	C875.370850,64.604958 876.722412,63.552959 878.536072,66.090118 
	C881.782776,70.631805 885.147095,75.092316 888.293762,79.701759 
	C891.388611,84.235268 887.240601,94.024849 881.945801,94.987022 
	C876.457886,95.984261 871.002502,97.245506 865.474854,97.904808 
	C862.403137,98.271172 861.327209,100.203659 861.176819,102.445908 
	C860.944153,105.915100 860.594299,109.338806 860.040405,112.769569 
	C859.314880,117.263931 860.080750,120.522919 865.670654,121.513336 
	C869.795349,122.244171 873.583984,124.701630 877.658447,125.943092 
	C880.585266,126.834869 882.043457,128.594177 882.683411,131.357651 
	C884.060059,137.302078 884.870789,142.903473 878.588135,147.085892 
	C875.597961,149.076447 873.645569,152.621460 870.661621,154.626862 
	C867.202148,156.951813 867.138977,159.190140 869.068420,162.317001 
	C870.710754,164.978592 872.640076,167.580582 873.658752,170.483887 
	C875.502930,175.740219 878.812622,175.817307 883.300720,174.422409 
	C887.673950,173.063156 892.203247,172.200333 896.674988,171.166748 
	C898.198303,170.814636 899.592529,171.009186 900.783875,172.254807 
	C903.084229,174.659927 905.508423,176.946396 907.814331,179.346375 
	C909.696655,181.305435 909.123169,183.628174 908.550903,185.896881 
	C907.387085,190.510971 906.478394,195.215775 904.927063,199.697128 
	C903.752563,203.090042 904.486267,205.245392 907.830688,207.009262 
	C911.388977,207.759872 914.619934,208.253448 917.505676,210.035263 
	C919.709167,211.395844 921.872498,211.188690 923.867798,209.363831 
	C925.708740,207.679962 927.866394,206.451660 930.435913,205.255920 
	C931.482422,204.184875 932.151001,203.198669 933.042419,202.494675 
	C935.039185,200.917847 936.135742,197.663666 939.221863,198.101776 
	C943.702209,198.737839 948.305359,199.170181 952.402344,201.352997 
	C952.903564,201.620041 952.915710,202.804886 953.336182,203.876038 
	C955.752563,205.048294 956.654907,206.961700 957.376404,209.034103 
	C958.300354,211.688156 959.142090,214.370163 960.102478,217.011765 
	C960.498474,218.100937 960.731018,219.445633 961.722900,220.020401 
	C966.297241,222.670975 971.020752,220.419067 975.634888,220.050095 
	C978.446838,219.825256 979.328247,217.249344 979.721313,214.559341 
	C980.290771,210.662598 980.875916,206.703232 983.815247,203.252960 
	C985.553955,195.817368 992.061157,195.744278 997.186768,194.176376 
	C1000.499695,193.162933 1002.351990,197.013275 1004.954895,198.512009 
	C1006.482544,199.391617 1007.781921,200.667511 1009.446472,201.972580 
	C1014.333740,205.117966 1019.013855,205.114426 1024.059082,202.314255 
	C1035.439087,193.491989 1034.128662,198.109436 1029.327637,184.729630 
	C1028.550049,182.562576 1027.677856,180.426682 1026.974731,178.236206 
	C1023.854370,168.516022 1029.834839,161.809113 1039.686157,163.732544 
	C1043.229736,164.424393 1046.929199,163.935791 1050.500122,164.944839 
	C1054.466797,166.065704 1056.707153,163.925064 1057.817261,160.338684 
	C1058.985962,156.562851 1060.025024,152.750977 1061.868896,149.216888 
	C1063.320435,146.434540 1062.504028,144.306442 1059.985474,142.505844 
	C1055.835327,139.538620 1051.818726,136.385345 1047.708984,133.360413 
	C1041.717285,128.950241 1042.369751,120.357788 1048.985596,117.007164 
	C1053.408813,114.767090 1057.791870,112.438721 1062.288208,110.356010 
	C1064.749268,109.216087 1065.760864,107.846611 1065.052979,105.014503 
	C1063.820557,100.084656 1062.987793,95.056274 1061.872314,90.095100 
	C1061.450562,88.219498 1060.331909,87.356613 1058.164062,86.850662 
	C1053.371582,85.732155 1048.574829,85.800941 1043.813354,86.077194 
	C1035.611816,86.553017 1030.072144,78.003242 1035.045776,70.768593 
	C1037.654907,66.973389 1039.876831,62.913857 1042.424927,59.074028 
	C1043.931152,56.804123 1044.013062,55.166588 1041.775269,53.164322 
	C1037.931152,49.724976 1034.265015,46.053444 1030.821533,42.212742 
	C1028.815674,39.975433 1027.213745,40.164555 1024.905029,41.572865 
	C1020.266846,44.402069 1015.541687,47.107529 1010.725159,49.620113 
	C1005.530151,52.330151 998.949280,48.209129 999.056763,42.238659 
	C999.158569,36.579014 997.347473,31.077976 997.960449,25.397156 
	C998.168152,23.471645 997.222290,22.387566 995.227051,21.924660 
	C989.954773,20.701441 984.682434,19.441780 979.491028,17.920397 
	C976.435425,17.024929 975.220886,18.935543 974.075500,20.911552 
	C971.928223,24.615837 969.902100,28.395344 967.956238,32.210232 
	C963.819946,40.319504 955.707825,40.710392 950.473755,33.058475 
	C947.777283,29.116199 944.751038,25.388172 942.231995,21.340412 
	C940.890625,19.184927 939.788025,18.774515 937.435669,19.717115 
	C932.555237,21.672735 927.568298,23.394464 922.540833,24.937634 
	C920.185181,25.660696 920.170715,27.211493 919.965454,29.113050 
	C919.369324,34.634720 921.281372,39.951790 921.052124,45.458435 
	C920.776794,52.072136 914.082397,56.765717 907.853699,54.356030 
	C904.937500,53.227890 902.112610,51.866001 899.225586,50.659775 
	C896.548523,49.541256 893.843750,48.488937 890.683167,47.219460 
	C898.314819,38.260372 907.079041,31.298014 916.523499,25.277334 
	C934.922485,13.548311 954.776550,5.505371 976.613525,2.872314 
	C977.157288,2.806750 977.633972,2.185678 978.070923,1.411841 
	C991.687561,1.000000 1005.375122,1.000000 1019.531372,1.000000 
z"/>
<path fill="#F7941D" opacity="1.000000" stroke="none" 
	d="
M244.531342,1.000000 
	C244.460373,3.277880 246.133240,2.853432 247.400742,3.002915 
	C263.407318,4.890643 278.255737,10.418152 292.744690,17.205685 
	C295.747711,18.612492 294.350464,20.131227 294.142914,22.245850 
	C292.349548,40.516331 287.265717,57.938553 281.035309,75.089890 
	C271.867340,100.327797 257.650238,122.215096 237.419006,139.972565 
	C230.067780,146.424927 221.541031,151.366776 213.822052,157.413864 
	C203.077942,165.830826 193.679062,175.519562 184.897156,185.788437 
	C175.897797,196.311569 167.630219,207.472351 160.289322,219.246109 
	C150.734787,234.570221 141.513168,250.084717 134.568634,266.834900 
	C133.755112,268.797119 133.284088,272.284149 129.548340,269.114166 
	C118.068634,259.373077 107.881020,248.514236 99.453125,236.000839 
	C87.288414,217.939163 79.687729,198.156754 75.891273,176.721237 
	C73.706612,164.386230 73.156639,151.952911 74.192894,139.670593 
	C76.693336,110.033775 86.645126,82.980217 105.152031,59.386486 
	C108.388367,55.260605 111.916847,51.364902 115.195839,47.271126 
	C117.642410,44.216610 119.351997,44.442062 121.378967,47.821674 
	C131.172318,64.150375 141.658875,80.026390 152.802551,95.472443 
	C161.914368,108.102150 171.300430,120.503090 182.214874,131.651199 
	C184.737061,134.227356 187.596497,136.492294 190.423706,138.746201 
	C194.182617,141.742859 197.219620,142.939087 201.549713,138.325058 
	C207.677368,131.795624 215.112900,126.493584 222.120316,120.556007 
	C206.261536,108.961876 194.195023,94.158928 182.622498,78.991707 
	C169.974228,62.414570 159.422638,44.463440 149.507004,26.132359 
	C147.741684,22.868786 147.951126,21.538677 151.541733,19.631367 
	C167.501511,11.153609 184.133179,4.976657 202.167175,2.865164 
	C202.710358,2.801564 203.175278,2.069387 203.338348,1.324462 
	C216.687561,1.000000 230.375122,1.000000 244.531342,1.000000 
z"/>
<path fill="#1F3366" opacity="1.000000" stroke="none" 
	d="
M2000.781372,554.638672 
	C2020.618408,570.680176 2038.853149,587.944702 2056.444824,605.911987 
	C2057.934082,607.432983 2059.207031,609.252563 2061.650391,610.045166 
	C2062.000000,614.356873 2062.000000,618.713806 2062.000000,623.535339 
	C2061.059814,623.956116 2060.447266,624.343079 2060.162842,625.279724 
	C2054.739990,643.129333 2049.365234,660.993958 2043.818726,678.805054 
	C2042.982666,681.489868 2043.285889,684.286987 2042.561768,687.763733 
	C2026.727539,677.044739 2016.442627,661.227966 2001.420898,650.211304 
	C1998.900269,650.309814 1997.429688,649.015564 1995.893188,647.658081 
	C1977.202759,631.146423 1957.851685,615.439331 1938.097168,600.221619 
	C1932.960938,596.264832 1927.863892,592.254639 1922.612061,588.455078 
	C1920.396118,586.851807 1918.716797,584.905029 1917.199219,582.286621 
	C1904.539185,573.140442 1892.140625,564.236511 1879.436523,555.199707 
	C1876.618164,553.025757 1878.139282,550.883179 1878.996582,548.781616 
	C1882.330811,540.607788 1886.357300,532.747131 1890.151489,524.791138 
	C1895.810913,512.923889 1901.095703,500.872284 1907.239746,489.237152 
	C1907.864624,488.053772 1908.480225,486.867645 1910.109253,486.062683 
	C1913.001099,485.622620 1915.125732,486.393585 1917.161133,488.460876 
	C1936.934570,502.747437 1956.481812,516.721802 1975.395386,531.555054 
	C1982.438965,537.079285 1989.334961,542.780029 1996.288330,548.412903 
	C1998.302124,550.044250 1999.739380,551.940186 2000.781372,554.638672 
z"/>
<path fill="#1F3366" opacity="1.000000" stroke="none" 
	d="
M122.269341,579.385376 
	C115.521011,582.133728 110.647209,587.170227 105.277435,591.412903 
	C91.709953,602.132629 78.255127,613.033081 65.324203,624.502625 
	C59.690773,629.499451 53.153767,633.735657 48.915657,640.660767 
	C48.531799,642.639709 48.152542,644.105469 46.741344,645.346375 
	C41.239082,650.184631 36.396881,655.714966 31.036520,660.702393 
	C22.374428,668.761841 14.844794,677.890198 6.595117,686.336975 
	C5.162735,687.803528 3.942458,689.423706 1.276265,688.232056 
	C1.000000,686.933289 1.000000,685.866638 1.000000,684.399963 
	C2.597662,684.040833 2.736660,682.926270 2.974719,681.708801 
	C6.864259,661.817017 12.306648,642.246521 15.172635,622.138977 
	C16.281078,614.362244 22.018423,609.140747 26.379610,603.217529 
	C28.625463,600.167419 31.316776,597.445251 33.981209,594.281982 
	C38.272179,585.481750 44.458927,579.108093 53.553398,575.230591 
	C68.364677,562.412659 82.894318,549.805115 97.714439,537.020020 
	C105.481712,537.966248 112.171013,541.622864 119.492744,543.388184 
	C133.023132,546.650452 146.587708,549.415588 160.759521,550.505798 
	C160.969788,553.341431 159.144760,554.626343 157.410477,555.852295 
	C147.573441,562.806335 138.119522,570.275146 128.390686,577.373779 
	C126.656982,578.638733 125.037514,580.137268 122.269341,579.385376 
z"/>
<path fill="#25AAE1" opacity="1.000000" stroke="none" 
	d="
M630.531372,1.000000 
	C631.000000,34.586086 631.137695,68.173134 630.902405,101.757568 
	C630.844238,110.070564 635.875732,115.034004 644.276917,115.022057 
	C680.592712,114.970421 716.908813,115.052437 753.224243,114.920746 
	C756.950439,114.907234 759.029846,115.530769 759.431458,119.719604 
	C759.877930,124.377296 760.993164,128.970871 761.889893,133.999985 
	C760.078491,133.999985 758.434814,133.999985 756.791138,133.999985 
	C712.145935,134.000000 667.500671,133.985931 622.855530,134.032166 
	C619.925415,134.035202 617.660645,133.865463 615.951355,130.729797 
	C614.577454,128.209564 612.197693,125.299088 609.668213,124.535057 
	C603.671814,122.723846 603.935059,118.630829 603.947205,113.883430 
	C604.042358,76.568260 604.000000,39.252731 604.000000,1.468657 
	C612.687561,1.000000 621.375183,1.000000 630.531372,1.000000 
z"/>
<path fill="#000000" opacity="1.000000" stroke="none" 
	d="
M1.000000,688.476685 
	C5.784939,684.484009 9.620380,679.974182 13.586899,675.644714 
	C24.588570,663.636292 35.821228,651.877319 48.550724,641.170227 
	C60.208450,657.627869 75.417496,669.881714 93.169189,678.944946 
	C108.412628,686.727600 124.744499,691.623108 141.500443,694.946472 
	C151.429031,696.915710 161.400421,698.800537 171.581024,699.090332 
	C172.274933,699.109985 172.947876,699.866455 173.315277,700.640137 
	C117.137581,701.000000 61.275021,700.949585 5.413057,701.108276 
	C1.497621,701.119385 0.489663,700.054626 0.941606,696.427612 
	C1.247597,693.971863 1.000000,691.447144 1.000000,688.476685 
z"/>
<path fill="#662D91" opacity="1.000000" stroke="none" 
	d="
M2000.990723,554.466431 
	C1981.110229,539.152466 1961.263184,523.336609 1940.802490,508.304565 
	C1932.931030,502.521393 1924.422852,497.576172 1917.193115,490.446075 
	C1915.284912,486.653351 1915.488525,483.050873 1916.363281,480.019745 
	C1915.633667,482.323151 1915.557495,485.744873 1911.405518,486.844788 
	C1899.906128,509.168030 1889.339722,531.660950 1879.153076,554.705566 
	C1869.383911,575.781677 1859.647705,596.501526 1849.883911,617.208374 
	C1846.649292,624.068237 1843.343628,630.894653 1840.070190,637.736267 
	C1832.454590,653.652344 1824.777832,669.539795 1817.284912,685.513428 
	C1816.058838,688.127197 1814.615601,689.082886 1811.705688,689.066467 
	C1789.877808,688.943115 1768.048462,688.947754 1746.220337,689.058777 
	C1743.187256,689.074158 1741.405029,688.240417 1740.043213,685.377319 
	C1727.080566,658.121826 1713.979004,630.932312 1700.927002,603.719177 
	C1693.797241,588.853333 1686.593750,574.021912 1679.587891,559.097778 
	C1669.351807,537.292358 1658.691650,515.694885 1648.182739,494.023132 
	C1644.760498,486.965698 1640.760376,480.230194 1637.373535,473.025696 
	C1638.306519,478.085876 1637.347046,483.204468 1638.201538,488.065643 
	C1639.050049,492.893036 1638.969360,497.645782 1638.972656,502.432404 
	C1639.014526,562.586121 1638.925781,622.740173 1639.131470,682.893250 
	C1639.149292,688.088928 1637.676270,689.170166 1632.759033,689.116394 
	C1609.100220,688.857666 1585.437134,689.023682 1561.775513,688.986267 
	C1554.183716,688.974243 1555.014893,689.849609 1555.013428,682.429749 
	C1554.993286,584.450745 1555.000122,486.471741 1554.998535,388.492737 
	C1554.998535,386.659760 1554.977539,384.826813 1554.918945,382.531677 
	C1553.482422,380.734009 1552.791504,379.112701 1552.742676,377.176392 
	C1552.587158,371.014404 1552.537598,364.854248 1552.795044,358.693115 
	C1552.955444,354.851593 1554.955078,352.942902 1558.762207,352.785553 
	C1560.426880,352.716797 1562.090454,352.640289 1563.756226,352.639343 
	C1595.404907,352.621613 1627.054565,352.764160 1658.701294,352.522369 
	C1665.365234,352.471466 1669.292969,354.525421 1672.246948,360.766510 
	C1686.065552,389.961731 1700.486328,418.870361 1714.312744,448.064758 
	C1715.383423,450.325348 1716.531250,452.542419 1718.185547,454.938354 
	C1718.678223,458.799225 1721.339355,461.153625 1722.734863,464.126221 
	C1740.696899,502.385498 1760.578613,539.741455 1776.730469,578.853699 
	C1777.404419,580.485840 1777.871826,582.290527 1779.612549,583.765991 
	C1785.203125,571.329285 1790.684814,559.043396 1796.631104,546.977966 
	C1802.219727,535.638000 1806.865601,523.839661 1813.390381,512.548706 
	C1820.704102,496.884766 1827.998169,481.615204 1835.231567,466.317688 
	C1837.926270,460.618713 1840.513306,454.869263 1843.259033,449.195251 
	C1844.188477,447.274689 1844.992554,445.186676 1847.567627,444.128326 
	C1857.620850,423.210205 1867.347412,402.493866 1877.117798,381.798187 
	C1880.918457,373.747375 1884.896118,365.779205 1888.621948,357.694458 
	C1889.645630,355.473419 1891.114746,354.972961 1893.318237,354.975464 
	C1927.966553,355.015015 1962.614868,355.026581 1997.263062,354.958435 
	C2000.002319,354.953064 2001.298340,355.706451 2001.026855,358.611206 
	C2000.857300,360.427582 2000.999878,362.272949 2000.999756,364.105316 
	C2000.996582,427.405182 2000.993286,490.705017 2000.990723,554.466431 
z"/>
<path fill="#0BA14B" opacity="1.000000" stroke="none" 
	d="
M1040.000000,547.000000 
	C983.343201,547.000000 927.186157,547.056641 871.029846,546.896301 
	C866.364685,546.882996 864.798157,547.829712 864.871643,552.834412 
	C865.177063,573.659546 865.137939,594.493530 864.892578,615.320251 
	C864.838501,619.906616 866.114929,621.110168 870.683899,621.100708 
	C940.338074,620.955933 1009.992615,620.999390 1079.647095,621.001038 
	C1085.993408,621.001221 1085.998169,621.007935 1085.999146,627.508972 
	C1086.001709,646.005737 1085.750000,664.507935 1086.154297,682.995850 
	C1086.273682,688.453796 1084.316528,689.097107 1079.638672,689.090698 
	C990.487793,688.967834 901.336731,689.000061 812.185669,689.000000 
	C803.187256,689.000000 794.181519,688.786560 785.193665,689.094238 
	C781.032104,689.236694 779.888123,687.999512 779.907166,683.827637 
	C780.069763,648.167969 780.000061,612.507263 780.000000,576.846863 
	C780.000000,505.026123 779.999451,433.205353 780.001038,361.384613 
	C780.001160,355.006958 780.007690,355.001007 786.477356,355.000946 
	C884.126892,354.999634 981.776489,354.993561 1079.426025,355.012848 
	C1086.825562,355.014282 1085.970703,354.210266 1085.987061,361.787933 
	C1086.026978,380.284607 1085.858276,398.783264 1086.101929,417.276825 
	C1086.161255,421.779724 1085.012939,423.116394 1080.359375,423.106140 
	C1010.705261,422.952606 941.050720,422.999359 871.396240,423.001007 
	C865.007019,423.001160 865.002258,423.007660 865.000916,429.465759 
	C864.997803,443.796570 864.966614,458.127533 865.013794,472.458191 
	C865.038025,479.833191 864.204285,478.984467 871.820068,478.987305 
	C932.809387,479.010040 993.798828,479.062592 1054.787598,478.883728 
	C1059.777100,478.869110 1061.223389,480.022858 1061.132324,485.152435 
	C1060.798462,503.976562 1060.839844,522.812500 1061.115356,541.638489 
	C1061.182007,546.186157 1059.793091,547.396118 1055.491455,547.083801 
	C1050.518433,546.722778 1045.499146,546.999939 1040.000000,547.000000 
z"/>
<path fill="#ED1C24" opacity="1.000000" stroke="none" 
	d="
M1447.000000,689.000000 
	C1440.500122,689.000000 1434.492676,688.820129 1428.503418,689.072144 
	C1425.274292,689.208069 1423.388306,688.333313 1421.984009,685.236816 
	C1412.260742,663.797424 1402.343872,642.445923 1392.546509,621.039978 
	C1391.298950,618.314209 1389.965820,616.865417 1386.413452,616.879456 
	C1340.415039,617.061523 1294.415649,617.046326 1248.416870,616.910645 
	C1244.808472,616.900024 1243.198486,618.129150 1241.852539,621.335999 
	C1233.263428,641.799561 1224.393921,662.145447 1215.802124,682.607849 
	C1213.899170,687.140137 1211.629639,689.255127 1206.112793,689.176331 
	C1178.952271,688.788330 1151.783081,689.010498 1124.616943,688.975769 
	C1122.857788,688.973511 1121.017456,689.425415 1119.079956,688.426208 
	C1122.748169,680.542053 1126.312500,672.687927 1130.038574,664.911316 
	C1138.812866,646.598816 1147.723633,628.351624 1156.470459,610.026062 
	C1169.371826,582.996094 1182.167114,555.915466 1195.029785,528.866882 
	C1204.588745,508.765991 1214.197754,488.688934 1223.756348,468.587891 
	C1233.526123,448.043213 1243.281006,427.491455 1253.005615,406.925446 
	C1260.627686,390.805756 1268.255005,374.687866 1275.721558,358.496155 
	C1276.915894,355.905975 1278.254639,354.910248 1281.195190,354.925476 
	C1306.360718,355.055847 1331.527344,355.043945 1356.693115,354.939301 
	C1359.522827,354.927521 1360.978394,355.713745 1362.238525,358.390900 
	C1375.762573,387.121918 1389.458618,415.772034 1403.096313,444.449615 
	C1411.880493,462.920959 1420.660156,481.394501 1429.417236,499.878754 
	C1441.678345,525.759277 1453.908447,551.654358 1466.166870,577.536133 
	C1474.641602,595.429199 1483.159058,613.302063 1491.625488,631.198975 
	C1500.440918,649.833740 1509.219849,668.485840 1518.001587,687.136475 
	C1518.202637,687.563293 1518.249756,688.062439 1518.489380,689.000000 
	C1494.679565,689.000000 1471.089722,689.000000 1447.000000,689.000000 
z"/>
<path fill="#1F3366" opacity="1.000000" stroke="none" 
	d="
M1847.568604,443.788269 
	C1847.236084,448.115295 1844.788696,451.567841 1843.039307,455.281097 
	C1834.014771,474.437164 1824.824219,493.515045 1815.422607,512.829956 
	C1813.101440,513.866760 1811.309570,513.290222 1809.513550,512.174011 
	C1781.722656,494.902435 1753.198730,478.894867 1724.583008,463.049469 
	C1721.917358,461.573395 1719.617065,459.754059 1717.285767,457.317078 
	C1713.502563,453.331268 1712.044922,448.474792 1709.872070,444.005585 
	C1696.187866,415.857086 1682.435303,387.741638 1668.865845,359.537933 
	C1667.253784,356.187103 1665.252441,354.998779 1661.589600,355.011475 
	C1627.952393,355.128265 1594.314575,355.143616 1560.677612,355.001190 
	C1556.380371,354.983032 1554.711060,356.173126 1554.914795,360.651215 
	C1555.224731,367.463440 1554.962402,374.301666 1554.907227,381.599182 
	C1543.501953,377.987274 1532.100098,373.992889 1520.769775,369.804504 
	C1496.819824,360.951019 1472.560547,353.057098 1448.177124,345.478394 
	C1415.574829,335.345062 1382.602661,326.640839 1349.420166,318.696716 
	C1318.361084,311.260864 1287.034180,305.155090 1255.538940,299.839478 
	C1233.850098,296.179016 1212.101685,292.891815 1190.286255,290.239532 
	C1172.559082,288.084320 1154.783447,286.171143 1136.943237,284.842316 
	C1116.614746,283.328186 1096.315674,281.628387 1075.936035,280.786041 
	C1069.653076,280.526398 1063.355347,280.115845 1056.594482,280.024384 
	C1055.705688,277.986115 1056.563477,276.104492 1056.871338,274.148468 
	C1058.233887,265.491669 1052.949463,260.515472 1044.557251,262.515411 
	C1044.234009,262.592438 1043.914917,262.687988 1043.591064,262.762268 
	C1032.745239,265.250977 1032.819824,265.214966 1027.928589,255.012497 
	C1026.651123,252.347961 1026.744751,250.373367 1029.014160,248.403854 
	C1031.019531,246.663651 1032.862427,244.733459 1034.741943,242.851959 
	C1040.654907,236.932968 1038.947876,229.583008 1031.039551,226.851120 
	C1030.882446,226.796860 1030.725342,226.742401 1030.567749,226.689758 
	C1016.351257,221.942352 1020.213318,223.225143 1021.154358,210.122009 
	C1021.374573,207.055405 1023.777954,206.707199 1026.073730,206.117859 
	C1030.849487,204.891937 1036.028687,205.129959 1040.672119,202.041412 
	C1045.683838,202.469040 1050.466675,201.229309 1055.473511,202.802246 
	C1058.286255,205.207214 1056.669800,207.625519 1056.069214,209.909210 
	C1050.331787,231.727112 1059.905518,252.072800 1080.386597,261.502075 
	C1082.055786,262.270508 1083.808838,262.785858 1085.527954,263.407318 
	C1090.936646,265.362518 1095.067383,264.147095 1099.417236,260.001099 
	C1114.321411,245.795654 1125.920776,229.382736 1134.400879,210.692490 
	C1135.237183,208.849258 1135.906860,206.929031 1138.671631,206.770081 
	C1160.315308,207.733673 1181.427490,210.413589 1202.582886,212.786438 
	C1218.478638,214.569351 1234.293701,216.865982 1250.561768,218.905396 
	C1258.114136,230.540833 1265.271240,242.148422 1274.504272,252.406693 
	C1280.975586,259.596436 1288.065674,266.112915 1295.725464,271.789429 
	C1312.815186,284.454346 1331.745239,293.529175 1352.618286,298.328064 
	C1365.615479,301.316193 1378.780029,302.099243 1392.025879,301.649139 
	C1423.190674,300.590210 1450.989624,289.854950 1476.556152,271.798035 
	C1491.549683,275.325043 1505.678467,280.643494 1519.919067,285.549377 
	C1557.033569,298.335388 1593.562256,312.644135 1629.620728,328.191681 
	C1665.139282,343.506317 1699.915894,360.371124 1734.196045,378.211700 
	C1769.168823,396.412689 1803.409058,415.972717 1836.696899,437.147156 
	C1840.186646,439.366943 1843.737671,441.490234 1847.568604,443.788269 
z"/>
<path fill="#25AAE1" opacity="1.000000" stroke="none" 
	d="
M541.746460,354.480347 
	C570.746277,354.906799 599.409729,354.975037 628.073120,354.994415 
	C662.739014,355.017883 697.405151,355.052246 732.070557,354.923828 
	C735.767944,354.910126 737.162781,355.560120 737.110535,359.709229 
	C736.863037,379.372345 736.905518,399.041168 737.086731,418.705750 
	C737.119507,422.257019 736.125183,423.093018 732.656189,423.079956 
	C697.657410,422.948517 662.657654,423.075806 627.659241,422.903717 
	C623.298462,422.882263 621.870972,423.735718 621.880188,428.478394 
	C622.044983,513.476257 621.958557,598.474487 622.112854,683.472412 
	C622.121277,688.109070 620.856445,689.147400 616.389526,689.106384 
	C592.058777,688.882751 567.723999,688.893066 543.392944,689.101501 
	C539.157288,689.137695 537.871033,688.318909 537.879822,683.754883 
	C538.043579,598.923706 537.944946,514.092041 538.131775,429.260986 
	C538.143433,423.963013 536.698486,422.844666 531.622986,422.878235 
	C496.625275,423.109711 461.625092,422.943451 426.626404,423.084351 
	C422.989075,423.098999 421.649719,422.358582 421.906464,418.482971 
	C422.269257,413.007721 421.987213,407.489746 421.924561,401.528687 
	C419.719818,399.225098 419.688324,396.685883 419.662384,394.180023 
	C419.548737,383.183655 419.477234,372.185486 419.685791,361.190918 
	C419.823242,353.945190 420.953033,352.769318 428.267487,352.691986 
	C450.593292,352.455933 472.920929,352.623291 495.247803,352.600006 
	C508.077484,352.586609 520.907593,352.529785 533.736633,352.649292 
	C536.344482,352.673584 539.121399,352.214355 541.746460,354.480347 
z"/>
<path fill="#1F3366" opacity="1.000000" stroke="none" 
	d="
M542.301086,354.586700 
	C504.998169,354.959290 467.913391,355.032898 430.828827,355.175415 
	C421.496490,355.211273 422.500183,353.755707 422.413025,363.747253 
	C422.307190,375.880402 422.213867,388.013672 421.991699,400.607117 
	C411.347382,404.998932 401.482178,410.380859 391.238708,414.927307 
	C386.563232,417.002472 381.962280,419.245483 377.084290,421.674500 
	C374.243225,426.571136 369.134918,427.391968 364.977173,429.544159 
	C352.044495,436.238525 338.827881,442.390045 326.126648,449.524658 
	C321.864960,451.918549 317.352936,453.339722 312.365692,454.687134 
	C295.501251,464.341919 278.969879,473.835114 262.221344,483.581085 
	C253.454773,484.906158 245.017136,483.192535 236.540054,482.682648 
	C230.843735,482.340027 225.213150,480.653351 219.525223,480.478882 
	C210.100235,480.189789 200.896637,478.067596 191.454514,477.784149 
	C186.695847,477.641327 181.613663,477.768982 176.680298,475.473816 
	C175.802811,472.015686 178.364334,470.740814 180.269913,469.381744 
	C205.179459,451.616486 230.473129,434.417175 256.438904,418.223328 
	C258.550934,416.906158 260.758087,415.663208 263.795471,415.995819 
	C272.746704,412.288818 280.282227,406.740295 288.342804,402.116882 
	C302.682526,393.891815 316.885925,385.432617 331.506653,377.702820 
	C333.664001,376.562195 335.647278,375.092316 337.850708,373.466431 
	C351.618622,366.295593 365.209290,359.357056 378.882263,352.584686 
	C423.906647,330.283508 469.817780,310.026337 517.064636,292.862885 
	C524.534485,290.149292 531.989990,287.396545 539.692688,284.403503 
	C542.425781,281.317139 544.887634,283.296875 547.090881,284.434357 
	C560.072021,291.136353 573.848389,295.343628 588.213928,297.645111 
	C615.447937,302.008270 641.833191,298.620544 667.422668,288.562775 
	C685.943359,281.283356 702.095093,270.234802 716.310669,256.501160 
	C723.213989,249.831924 729.310608,242.284271 734.645996,234.214081 
	C736.104248,232.008331 737.380981,229.570007 740.759888,228.994812 
	C750.277161,228.502930 759.044495,225.876907 768.012878,224.450287 
	C786.453003,221.516998 804.843628,218.283188 823.378296,215.951477 
	C835.333008,214.447556 847.256104,212.692337 859.596802,210.954102 
	C863.333252,215.067108 864.979004,220.194855 867.580811,224.808014 
	C880.606140,247.902863 898.618042,266.156494 921.175964,280.556580 
	C920.260559,282.064392 918.721863,281.942749 917.228882,281.993774 
	C896.691467,282.695984 876.280823,284.889862 855.837646,286.857452 
	C817.941467,290.504730 780.366577,296.172974 742.880676,302.750366 
	C695.538574,311.057159 648.917297,322.364563 602.689270,335.335876 
	C582.447327,341.015656 562.357361,347.294464 542.301086,354.586700 
z"/>
<path fill="#662D91" opacity="1.000000" stroke="none" 
	d="
M1916.960571,582.508423 
	C1923.067505,584.845581 1927.895874,589.515869 1933.163208,593.520691 
	C1955.434692,610.454041 1977.230225,627.981445 1998.179565,646.539917 
	C1999.163086,647.411194 1999.988403,648.461121 2001.008301,649.747314 
	C2001.085815,661.553345 2000.922852,673.041504 2001.072510,684.525574 
	C2001.117188,687.950195 2000.200317,689.095093 1996.632812,689.074646 
	C1971.658936,688.931641 1946.682983,688.889404 1921.710083,689.105042 
	C1917.419556,689.142029 1916.928833,687.447571 1916.939209,683.869934 
	C1917.036255,650.237671 1916.989014,616.604919 1916.960571,582.508423 
z"/>
<path fill="#F6941D" opacity="1.000000" stroke="none" 
	d="
M312.500610,454.892822 
	C316.523590,450.652405 322.367462,448.743225 327.637543,445.949219 
	C343.156342,437.721710 358.935181,429.984528 374.625854,422.082397 
	C375.037598,421.875000 375.605530,421.977661 376.470825,421.936218 
	C381.186829,431.613739 382.355927,442.141357 384.933228,452.290619 
	C385.649109,455.109680 383.621490,455.021515 381.686462,455.015564 
	C371.395264,454.983978 361.103851,455.009521 350.812531,454.999298 
	C338.197906,454.986755 325.583252,454.958435 312.500610,454.892822 
z"/>
<path fill="#25AAE1" opacity="1.000000" stroke="none" 
	d="
M740.888611,228.578369 
	C733.314819,240.737442 724.749023,251.897018 714.306763,261.592560 
	C692.546997,281.796204 666.887268,294.581299 637.903748,299.645264 
	C611.814697,304.203522 585.822083,302.410065 560.633118,293.003815 
	C553.766907,290.439789 547.411926,286.879730 540.295166,284.149872 
	C526.866943,277.434998 515.185303,268.624207 504.999390,258.258423 
	C485.078552,237.985840 471.352814,214.022797 464.960571,186.067230 
	C461.708771,171.845810 460.070496,157.448837 461.104218,142.961029 
	C463.401093,110.768822 474.117981,81.734985 494.779663,56.571445 
	C498.353577,52.218811 502.315002,48.373474 507.000092,43.597881 
	C507.000092,46.107979 507.000092,47.679882 507.000092,49.251789 
	C507.000092,77.412804 506.913452,105.574287 507.064514,133.734482 
	C507.099731,140.305634 506.726746,145.886383 501.536316,151.328369 
	C490.520355,162.878357 491.763184,177.759155 501.721863,188.803848 
	C511.027771,199.124603 524.659546,201.561172 537.458069,191.193970 
	C549.895630,181.119202 550.502502,159.012589 538.769470,149.284622 
	C537.132141,147.927124 536.977173,146.331711 536.978516,144.440994 
	C537.006958,104.282410 537.030334,64.123718 536.932800,23.965355 
	C536.926208,21.254610 537.843323,20.117628 540.192749,18.848202 
	C549.980347,13.559855 560.389282,9.941949 570.899963,6.494153 
	C573.891968,5.512672 575.054932,5.871853 575.048218,9.340378 
	C574.971252,48.832302 575.006775,88.324425 574.989258,127.816490 
	C574.987366,132.096069 571.723694,135.080673 570.393188,138.903641 
	C564.343994,156.285202 576.901062,177.486237 597.561646,175.978500 
	C603.259460,175.562714 608.461426,173.603012 612.213379,169.176453 
	C615.056152,165.822495 618.286011,164.896027 622.585022,164.909958 
	C667.575500,165.055710 712.566956,165.076874 757.557129,164.882187 
	C762.107483,164.862518 762.588135,166.764877 761.903748,170.153503 
	C760.328552,177.953979 758.561890,185.716034 757.015747,193.521988 
	C756.351624,196.874786 754.915588,198.121780 751.177185,198.108551 
	C704.353821,197.943085 657.529663,197.986893 610.705811,198.035706 
	C608.128906,198.038391 606.470398,197.475021 604.594116,195.263519 
	C593.174561,181.803268 575.858398,181.626144 564.751709,194.921738 
	C556.994934,204.207199 554.669128,217.707321 564.197449,230.961426 
	C573.404175,243.768036 593.340881,244.594528 603.048584,233.095749 
	C606.663025,228.814468 610.126526,227.889664 615.178772,227.910049 
	C655.170044,228.071518 695.162354,227.996979 735.154297,228.009262 
	C736.979980,228.009827 738.805603,228.147217 740.888611,228.578369 
z"/>
<path fill="#F7941D" opacity="1.000000" stroke="none" 
	d="
M373.753174,131.483093 
	C374.095764,140.333862 375.522736,148.705841 375.015137,157.177185 
	C373.481232,182.776901 366.906525,206.817139 353.663788,228.974319 
	C349.631927,235.720276 344.764008,241.804291 340.246765,248.167191 
	C339.533478,249.171890 338.645264,250.704086 337.290619,250.415024 
	C336.677734,250.284256 336.288116,248.493301 336.031097,247.400482 
	C331.696350,228.970688 324.053894,211.993942 312.412720,197.109039 
	C303.992310,186.342361 293.573914,177.642715 281.146545,171.516968 
	C278.685089,170.303650 277.100220,170.549774 275.195099,172.264023 
	C267.633636,179.067932 259.995911,185.787109 252.474686,192.459381 
	C260.885651,196.330460 268.430817,201.595428 275.314545,207.828217 
	C293.148590,223.975845 305.258026,243.971024 314.553925,265.916962 
	C316.138458,269.657776 315.781189,271.947266 312.328247,274.244141 
	C294.592163,286.042145 275.694489,294.888824 254.631393,299.122253 
	C240.909607,301.880219 227.099060,302.750275 213.300171,301.832245 
	C196.862457,300.738647 180.853653,296.989075 165.672714,290.274963 
	C165.078323,290.012085 164.510498,289.687622 163.911301,289.437378 
	C154.709473,285.594269 154.948639,285.704987 158.978516,276.829742 
	C168.487839,255.886826 179.963318,236.096893 192.958511,217.145615 
	C204.869308,199.775757 219.014984,184.344650 234.514984,170.227585 
	C241.710373,163.674194 250.001358,158.296814 257.953979,152.607605 
	C272.364197,142.298676 282.903381,128.645737 292.035645,113.744232 
	C305.644501,91.538139 312.772369,66.986183 317.920837,41.739475 
	C318.356110,39.604958 317.351318,36.373386 319.630310,35.706154 
	C321.785736,35.075111 323.356689,37.987484 325.042206,39.536762 
	C340.309692,53.570038 352.703308,69.719025 361.278473,88.687889 
	C367.399719,102.228424 371.527771,116.343681 373.753174,131.483093 
z"/>
<path fill="#0BA14B" opacity="1.000000" stroke="none" 
	d="
M1011.772705,156.753952 
	C1002.874939,169.150467 990.919556,176.745041 976.662781,179.744995 
	C959.075012,183.445862 942.143799,180.915451 927.197144,170.037430 
	C911.311829,158.476257 902.905762,142.900742 901.947449,123.155464 
	C900.963379,102.880753 908.228394,86.131607 923.494385,73.184563 
	C937.390137,61.399467 953.656128,57.073254 971.920044,59.771729 
	C985.692749,61.806625 997.368591,67.710213 1006.867371,77.534920 
	C1016.007629,86.988876 1021.244263,98.451904 1023.149536,111.702049 
	C1025.539551,128.323120 1021.308350,142.945404 1011.772705,156.753952 
z"/>
<path fill="#25AAE1" opacity="1.000000" stroke="none" 
	d="
M664.000000,52.000000 
	C664.000000,37.880352 664.000000,24.260704 664.000000,10.165062 
	C699.901917,23.732067 726.531738,47.143669 745.214966,81.000000 
	C730.078796,81.000000 715.820862,81.000069 701.562866,80.999977 
	C690.242371,80.999901 678.920837,80.915215 667.602234,81.059509 
	C664.815186,81.095039 663.870056,80.367828 663.934937,77.470192 
	C664.121277,69.150482 664.000244,60.823887 664.000000,52.000000 
z"/>
<path fill="#1F3466" opacity="1.000000" stroke="none" 
	d="
M983.476746,202.944443 
	C984.650269,208.796982 983.140015,214.872574 980.716797,219.515930 
	C977.398499,225.874634 969.360901,222.432770 963.486389,223.772995 
	C959.798035,224.614441 958.895935,221.433243 958.031799,218.672562 
	C956.599792,214.097916 955.137878,209.532639 953.603149,204.575562 
	C963.333679,203.404419 973.150146,202.634125 983.476746,202.944443 
z"/>
<path fill="#25AAE1" opacity="1.000000" stroke="none" 
	d="
M588.194214,143.509171 
	C593.274841,138.272141 597.599731,137.844559 601.415466,141.916718 
	C605.164673,145.917923 604.277771,151.784256 600.596191,154.921265 
	C597.537354,157.527618 594.363770,157.697281 591.126587,155.569977 
	C587.098145,152.922668 586.122009,148.924423 588.194214,143.509171 
z"/>
<path fill="#25AAE1" opacity="1.000000" stroke="none" 
	d="
M577.197876,208.533020 
	C582.568481,202.962006 586.209045,202.593094 590.360107,206.851517 
	C594.140869,210.730057 593.968750,215.721954 590.056396,219.477402 
	C586.810791,222.592834 583.009216,222.131577 579.895630,220.149231 
	C575.847046,217.571579 575.317017,213.334595 577.197876,208.533020 
z"/>
<path fill="#25AAE1" opacity="1.000000" stroke="none" 
	d="
M513.121704,165.742554 
	C515.426941,163.229645 517.067078,160.525955 520.975220,160.910583 
	C526.201599,161.424957 529.183228,164.469513 528.999329,170.022354 
	C528.831604,175.084412 525.663086,178.030930 520.420898,177.999649 
	C515.760071,177.971848 513.025635,174.895706 513.002258,169.642334 
	C512.997070,168.477722 513.020752,167.312988 513.121704,165.742554 
z"/>
<path fill="#F6941D" opacity="1.000000" stroke="none" 
	d="
M53.379765,575.016357 
	C47.475056,581.257751 41.115063,587.495239 34.455345,593.860840 
	C34.349636,589.081848 32.909050,584.335388 32.853157,579.407043 
	C32.808994,575.512634 34.097012,574.722473 37.619385,574.925171 
	C42.705914,575.217896 47.821365,575.007996 53.379765,575.016357 
z"/>
<path fill="#1E3765" opacity="1.000000" stroke="none" 
	d="
M930.302368,205.025238 
	C929.100220,207.989212 926.285156,209.840775 924.124451,212.287231 
	C922.278992,214.376694 920.250793,214.386887 917.970337,213.029572 
	C914.870239,211.184448 911.722961,209.418625 908.383179,207.382935 
	C915.263489,204.936111 922.770447,206.927444 930.302368,205.025238 
z"/>
<path fill="#1E3965" opacity="1.000000" stroke="none" 
	d="
M1023.878906,202.132202 
	C1024.086670,202.585571 1023.856140,203.047287 1023.502869,203.377914 
	C1017.225708,209.253738 1016.081970,209.201874 1009.845825,202.496124 
	C1014.267090,202.146561 1018.825317,202.113068 1023.878906,202.132202 
z"/>
<path fill="#662D91" opacity="1.000000" stroke="none" 
	d="
M1911.475586,162.989410 
	C1916.838867,162.387222 1919.719116,158.493988 1924.271240,154.725662 
	C1923.419312,162.659256 1922.862427,169.423492 1921.933350,176.136169 
	C1920.465576,186.741364 1917.165894,196.891266 1913.501831,206.898148 
	C1911.002808,213.723221 1904.236572,216.437622 1896.905273,214.498993 
	C1889.862793,212.636673 1887.769043,207.012360 1886.172729,201.116241 
	C1883.949707,192.905396 1882.096924,184.592133 1880.194702,176.297745 
	C1879.492432,173.235794 1880.097046,170.377853 1882.427856,168.061996 
	C1883.842896,166.656219 1885.448364,165.391068 1886.626831,163.808502 
	C1889.566772,159.860901 1893.155640,158.986908 1897.435303,161.227646 
	C1901.783447,163.504333 1906.437256,162.949661 1911.475586,162.989410 
z"/>
<path fill="#000000" opacity="1.000000" stroke="none" 
	d="
M121.939247,579.672913 
	C134.723541,569.850159 147.524475,560.434814 160.666718,550.930054 
	C178.366180,552.000671 195.644974,553.932251 212.923660,555.931213 
	C224.337143,557.251648 235.847610,557.736084 247.259583,559.067139 
	C261.780090,560.760803 276.345856,562.649109 289.355316,570.107605 
	C306.756409,580.083801 308.691742,602.410828 295.976044,616.527039 
	C286.180389,627.401489 273.105865,631.839294 259.459503,634.906982 
	C251.330811,636.734253 243.037415,637.580017 234.676392,638.212524 
	C226.726669,638.813904 218.787445,639.313599 210.881653,638.905579 
	C191.930878,637.927673 173.139145,635.680420 155.884018,626.938293 
	C139.949860,618.865356 127.832985,607.345215 123.636398,589.181274 
	C122.942650,586.178528 122.509483,583.115479 121.939247,579.672913 
z"/>
<path fill="#000000" opacity="1.000000" stroke="none" 
	d="
M263.980347,415.667847 
	C247.815308,426.644806 231.357544,437.129089 215.159042,447.999725 
	C202.257919,456.657532 189.673248,465.786896 176.658600,474.950195 
	C165.400040,474.472717 154.713669,472.532562 144.866089,467.377136 
	C134.081314,461.731110 129.356354,450.853271 132.303482,439.197266 
	C135.242996,427.571350 143.448776,420.830963 153.673477,416.008942 
	C165.755386,410.311035 178.612839,408.128052 191.856369,406.785614 
	C202.491028,405.707672 213.100006,405.661835 223.624695,406.212280 
	C237.413513,406.933350 251.090073,409.311005 263.980347,415.667847 
z"/>
<path fill="#000000" opacity="1.000000" stroke="none" 
	d="
M1352.701660,238.161957 
	C1326.352173,210.726410 1300.332275,183.322266 1273.952515,155.539291 
	C1279.389038,150.595505 1284.051270,145.172577 1289.653320,140.542282 
	C1295.405518,135.787949 1300.384766,130.097153 1305.692261,124.806274 
	C1310.770752,119.743690 1310.731445,119.825310 1315.621948,125.086945 
	C1325.995117,136.247253 1336.535889,147.251968 1346.861450,158.455597 
	C1349.178955,160.970123 1350.589355,161.180740 1353.070679,158.559570 
	C1360.025146,151.213303 1367.122681,143.968307 1374.996216,137.590912 
	C1378.919189,134.413544 1379.205200,132.216888 1375.214233,128.523300 
	C1362.918091,117.142822 1352.438599,103.964920 1339.829956,92.520683 
	C1355.123047,77.953239 1370.144531,63.672028 1385.114990,49.337337 
	C1386.458374,48.051014 1387.478516,47.661919 1388.760620,49.257690 
	C1397.495239,60.129562 1408.504639,68.868698 1417.303955,79.682014 
	C1417.827271,80.325027 1418.430420,80.904144 1419.009644,81.500206 
	C1430.702148,93.532669 1442.590820,105.382996 1454.004517,117.674324 
	C1459.305054,123.382294 1464.564697,129.120895 1470.134155,134.562149 
	C1471.631714,136.025345 1472.128296,137.207733 1470.113892,138.314331 
	C1466.231934,140.446869 1463.673218,143.996826 1460.578979,146.960739 
	C1450.146973,156.953491 1439.960205,167.207947 1429.375977,177.035172 
	C1414.911865,190.464615 1400.831299,204.293854 1386.440918,217.788269 
	C1378.690430,225.056229 1371.298218,232.675659 1363.202637,240.032928 
	C1359.968994,242.249908 1357.239380,241.370453 1354.184814,239.409790 
	C1353.809326,239.164566 1353.857422,239.060242 1353.909546,239.084412 
	C1353.721924,238.731842 1353.411743,238.426727 1352.701660,238.161957 
z"/>
<path fill="#000000" opacity="1.000000" stroke="none" 
	d="
M1488.992554,210.375977 
	C1489.000122,218.517105 1489.827881,226.288223 1484.991821,233.164093 
	C1479.011719,241.666489 1464.022095,240.872742 1459.294312,231.667526 
	C1453.220581,219.842010 1455.514038,207.994629 1459.974487,196.515869 
	C1465.440674,182.448914 1469.122192,168.034225 1471.103027,153.102371 
	C1471.507690,150.051117 1472.124146,147.005051 1472.556152,143.811646 
	C1473.653198,167.000977 1482.762085,188.095993 1488.992554,210.375977 
z"/>
<path fill="#293263" opacity="1.000000" stroke="none" 
	d="
M1353.769897,239.507568 
	C1356.674194,238.419769 1359.297852,239.934845 1362.474609,240.101593 
	C1358.651123,245.759125 1358.651123,245.759125 1353.769897,239.507568 
z"/>
<path fill="#293263" opacity="1.000000" stroke="none" 
	d="
M1352.541260,238.449097 
	C1352.786987,238.267899 1353.201904,238.405182 1353.789185,238.825531 
	C1353.544556,238.994919 1353.127319,238.881241 1352.541260,238.449097 
z"/>
<path fill="#0BA14B" opacity="1.000000" stroke="none" 
	d="
M1139.149048,206.573303 
	C1136.349487,212.228394 1133.796997,217.635864 1130.978394,222.900803 
	C1122.640503,238.475403 1111.639160,251.940613 1098.663696,263.906189 
	C1095.423462,266.894135 1092.240356,267.421112 1088.203247,266.552887 
	C1061.362793,260.780762 1045.714966,233.527298 1054.366089,207.461548 
	C1054.785522,206.197632 1055.276367,204.957382 1055.786621,203.344421 
	C1062.716187,188.132507 1074.203003,179.598312 1090.407593,176.918594 
	C1104.530151,174.583160 1116.899780,178.350662 1127.443848,187.393219 
	C1133.122803,192.263504 1138.541016,197.971664 1139.149048,206.573303 
z"/>
<path fill="#000000" opacity="1.000000" stroke="none" 
	d="
M220.000000,30.000000 
	C207.687515,30.000000 195.875046,30.000315 184.062561,29.999878 
	C177.370880,29.999630 175.071243,28.225048 172.659012,21.116695 
	C206.592880,21.116695 240.487244,21.116695 274.394440,21.116695 
	C274.360657,21.525955 274.405334,21.877718 274.296478,22.172863 
	C271.409882,30.000986 271.407196,30.000000 262.925110,30.000000 
	C248.783401,30.000000 234.641708,30.000000 220.000000,30.000000 
z"/>
<path fill="#000000" opacity="1.000000" stroke="none" 
	d="
M205.080536,54.000000 
	C224.221741,54.000000 242.876999,54.000000 261.578400,54.000000 
	C259.787933,62.999962 259.787933,62.999977 251.146484,62.999989 
	C237.148407,63.000008 223.123672,62.485420 209.163025,63.208248 
	C201.727966,63.593208 198.063904,60.477104 195.610733,54.000000 
	C198.675095,54.000000 201.634827,54.000000 205.080536,54.000000 
z"/>
<path fill="#000000" opacity="1.000000" stroke="none" 
	d="
M227.115280,87.000000 
	C233.760529,87.000328 239.923584,87.048622 246.085342,86.979370 
	C248.876602,86.947998 249.135376,87.519852 248.354996,90.441849 
	C246.909790,95.853271 244.213654,98.218117 238.666412,97.004395 
	C238.507477,96.969620 238.334167,96.996483 238.167725,97.000504 
	C230.073044,97.196014 221.337357,98.746910 219.152557,87.000000 
	C221.216385,87.000000 223.924484,87.000000 227.115280,87.000000 
z"/>
<path fill="#000000" opacity="1.000000" stroke="none" 
	d="
M1911.387207,487.115509 
	C1913.063599,482.690063 1915.043701,478.415680 1917.634033,472.823883 
	C1918.143799,479.336609 1918.201538,484.447449 1917.373047,489.864136 
	C1915.261597,489.191132 1913.476196,488.228851 1911.387207,487.115509 
z"/>
<path fill="#000000" opacity="1.000000" stroke="none" 
	d="
M1717.033691,457.422882 
	C1727.519653,460.797241 1736.767334,467.004211 1746.395020,472.369934 
	C1766.001343,483.297028 1785.223999,494.912994 1804.588989,506.272186 
	C1808.006470,508.276855 1811.346924,510.412720 1814.938232,512.763794 
	C1812.578735,518.726196 1810.142944,524.480652 1807.404053,530.087097 
	C1798.089111,549.155334 1788.910034,568.283875 1780.614136,587.824219 
	C1780.360718,588.421021 1779.898193,588.929138 1778.998047,590.284485 
	C1760.469116,544.743103 1737.727905,501.752075 1717.033691,457.422882 
z"/>
<path fill="#000000" opacity="1.000000" stroke="none" 
	d="
M1318.000000,549.000000 
	C1303.350830,549.000000 1289.201660,549.000000 1274.040039,549.000000 
	C1287.736450,516.906494 1301.618408,485.438049 1314.585693,452.474152 
	C1328.144775,485.639465 1343.863892,516.828003 1359.131470,549.000000 
	C1345.021606,549.000000 1331.760864,549.000000 1318.000000,549.000000 
z"/>
<path fill="#000000" opacity="1.000000" stroke="none" 
	d="
M254.000000,265.000000 
	C261.499298,265.000000 268.563202,265.591644 275.480011,264.836243 
	C282.625671,264.055817 286.281830,267.389160 288.815002,273.219391 
	C288.575653,274.081787 287.842346,273.954376 287.219513,273.980164 
	C255.302505,275.301941 223.367599,274.975342 191.436905,274.941711 
	C190.017044,274.940216 186.857513,275.709290 187.396606,273.963074 
	C188.239395,271.233185 187.366531,266.981659 191.716751,266.030304 
	C192.194946,265.925690 192.713577,265.999969 193.213440,266.001373 
	C213.315445,266.057617 233.387054,264.283264 254.000000,265.000000 
z"/>
<path fill="#000000" opacity="1.000000" stroke="none" 
	d="
M261.076782,233.580215 
	C262.715424,236.050446 264.093903,238.214767 265.936401,241.107681 
	C243.530518,240.122101 221.762802,242.955368 199.808334,241.826385 
	C199.217896,238.809998 201.670242,236.588257 202.149567,233.794220 
	C202.456207,232.006729 204.200638,231.986649 205.763672,231.988510 
	C222.928665,232.009064 240.093719,232.012177 257.258698,231.980972 
	C258.652740,231.978439 259.890747,232.123077 261.076782,233.580215 
z"/>
<path fill="#000000" opacity="1.000000" stroke="none" 
	d="
M219.310974,199.000061 
	C221.940292,199.000000 224.140701,199.246811 226.267197,198.954987 
	C233.423721,197.972794 239.196426,199.446472 241.655838,207.504791 
	C232.106705,207.504791 222.293503,207.504791 211.388977,207.504791 
	C214.673218,204.896866 212.236206,198.658569 219.310974,199.000061 
z"/>
</svg>